<?xml version="1.0" encoding="UTF-8"?>
<svg version="1.1" xmlns="http://www.w3.org/2000/svg" width="4983" height="2626">
<path d="M0 0 C1.77710194 0.00927833 1.77710194 0.00927833 3.59010494 0.01874411 C4.25606249 0.01399975 4.92202004 0.00925539 5.60815813 0.00436726 C7.86130993 -0.00422871 10.11177208 0.03037518 12.36465442 0.06445372 C14.00404036 0.06723256 15.64343254 0.06736651 17.28281927 0.06509858 C21.84489517 0.06657981 26.4060081 0.10602543 30.96783406 0.15100117 C35.97148935 0.19363745 40.9752173 0.20118921 45.97902286 0.21318781 C54.90103861 0.23946526 63.82271852 0.2884855 72.74454868 0.3512522 C86.45485594 0.44740175 100.16517019 0.50692373 113.87570418 0.55978671 C137.21097851 0.65062701 160.54605928 0.76689244 183.88114001 0.89785234 C209.39661369 1.0410237 234.91210035 1.17112903 260.42773426 1.28234923 C261.60276043 1.28747452 261.60276043 1.28747452 262.80152451 1.29270336 C272.48880558 1.33490829 282.17608934 1.37647512 291.86337427 1.41778333 C306.36135437 1.47961548 320.85933079 1.54230681 335.3573072 1.60499755 C338.90467904 1.62033629 342.45205099 1.6356497 345.99942303 1.65094378 C371.29029015 1.76002811 396.58113261 1.87382253 421.87196378 1.99093485 C514.47815377 2.41970818 607.08444179 2.80517025 864.22884129 3.69996511 C875.36322021 3.73784488 886.4975989 3.77579263 897.63197744 3.8137852 C899.22403618 3.81921738 900.81609493 3.82464956 902.40815367 3.83008172 C903.19653164 3.8327717 903.98490961 3.83546168 904.79717782 3.83823318 C905.98005077 3.84226919 905.98005077 3.84226919 907.18682016 3.84638673 C907.97559337 3.84907809 908.76436658 3.85176944 909.57704201 3.85454235 C962.672972 4.03570355 1015.76890407 4.21625188 1068.86483901 4.39595697 C1148.36068398 4.66502044 1227.85652111 4.93622582 1430.26213329 5.6407723 C1437.00330136 5.66439316 1443.74446945 5.68800733 1450.48563755 5.71161902 C1451.59002944 5.71548758 1451.59002944 5.71548758 1452.71673228 5.71943428 C1472.88506063 5.79007771 1493.05339042 5.86028758 1513.22172236 5.92989749 C1518.06775023 5.94662507 1522.91377798 5.96338974 1527.75980566 5.98017282 C1530.50433252 5.9896752 1533.24885939 5.99917575 1535.99338627 6.00867552 C1537.00812455 6.01218854 1537.00812455 6.01218854 1538.0433626 6.01577253 C1546.17954086 6.04393124 1554.31571983 6.07187178 1562.45189988 6.09950826 C1589.25729126 6.19057782 1616.06264791 6.2856564 1642.86795114 6.40011912 C1652.9814828 6.44313998 1663.09502024 6.48476547 1673.20855989 6.52586068 C1675.72029312 6.53607146 1678.23202612 6.54633757 1680.7437589 6.55665951 C1715.11382595 6.69730167 1749.48281068 6.74981258 1783.85306011 6.71617176 C1784.89463436 6.71515664 1784.89463436 6.71515664 1785.9572505 6.71412101 C1787.35983901 6.71275294 1788.76242751 6.71137323 1790.165016 6.70998187 C1800.52807653 6.69992027 1810.89110637 6.69857308 1821.25416958 6.7049945 C1822.26171845 6.70559923 1822.26171845 6.70559923 1823.28962183 6.70621617 C1830.65965003 6.71074739 1838.02967533 6.71690695 1845.39970137 6.72416921 C1859.62519131 6.73655184 1873.85010771 6.72083904 1888.07550822 6.66838316 C1897.63946089 6.63535191 1907.20307282 6.63416825 1916.76705042 6.65856648 C1922.26800618 6.67148082 1927.76791352 6.66927921 1933.26874965 6.62765901 C1938.29878306 6.5897847 1943.32703395 6.59288425 1948.35706433 6.6290774 C1950.17669299 6.63478827 1951.99644588 6.62517376 1953.81589376 6.59889666 C1967.41779272 6.41433315 1967.41779272 6.41433315 1971.36829874 9.70278055 C1972.93809208 12.0084421 1974.00046926 14.14427477 1975.00671375 16.73696959 C1975.63239246 17.78094908 1976.25807117 18.82492857 1976.90270984 19.90054381 C1977.43976551 20.85461119 1977.97682117 21.80867857 1978.53015125 22.79165709 C1979.46020984 24.43424498 1979.46020984 24.43424498 1980.4090575 26.11001647 C1980.72987293 26.67970152 1981.05068836 27.24938658 1981.38122547 27.83633482 C1983.13053363 30.94095129 1984.89211948 34.03856824 1986.65515125 37.13540709 C1987.19749408 38.08809477 1987.19749408 38.08809477 1987.75079334 39.06002867 C1991.42559353 45.49856052 1995.2088202 51.87027122 1999.00671375 58.23696959 C2004.78458939 67.92984676 2010.43314454 77.68632652 2016.00671375 87.4972235 C2020.91532464 96.13283142 2025.92075104 104.70407513 2031.00671375 113.23696959 C2036.78421172 122.93007654 2042.43314036 132.68631916 2048.00671375 142.4972235 C2052.91532464 151.13283142 2057.92075104 159.70407513 2063.00671375 168.23696959 C2068.78421172 177.93007654 2074.43314036 187.68631916 2080.00671375 197.4972235 C2084.91532464 206.13283142 2089.92075104 214.70407513 2095.00671375 223.23696959 C2100.78421172 232.93007654 2106.43314036 242.68631916 2112.00671375 252.4972235 C2116.91532572 261.13283333 2121.92084745 269.70401613 2127.00671375 278.23696959 C2132.4756591 287.41454769 2137.84820722 296.63946742 2143.13171375 305.92446959 C2149.77356426 317.5958796 2156.50373144 329.21276592 2163.28894031 340.80142272 C2166.20032076 345.77675508 2169.10307787 350.75711487 2172.00671375 355.73696959 C2175.49287524 361.71477262 2178.97995601 367.69202955 2182.4715575 373.66665709 C2188.47448399 383.94229457 2194.44867925 394.23330512 2200.38171375 404.54946959 C2205.49957587 413.4459402 2210.69328882 422.29343673 2215.94421375 431.11196959 C2222.12580984 441.49735184 2228.16524593 451.95457996 2234.14270008 462.458161 C2240.1153517 472.95079289 2246.18867226 483.38259639 2252.28894031 493.80142272 C2255.20032076 498.77675508 2258.10307787 503.75711487 2261.00671375 508.73696959 C2264.49287524 514.71477262 2267.97995601 520.69202955 2271.4715575 526.66665709 C2277.47448399 536.94229457 2283.44867925 547.23330512 2289.38171375 557.54946959 C2294.49957488 566.44593848 2299.69318839 575.29349769 2304.94421375 584.11196959 C2310.7403429 593.84746839 2316.40998834 603.64586851 2322.00643909 613.49667418 C2326.91513726 622.13247172 2331.92074184 630.70383895 2337.00671375 639.23696959 C2342.4756591 648.41454769 2347.84820722 657.63946742 2353.13171375 666.92446959 C2359.77356426 678.5958796 2366.50373144 690.21276592 2373.28894031 701.80142272 C2376.20032076 706.77675508 2379.10307787 711.75711487 2382.00671375 716.73696959 C2385.49287524 722.71477262 2388.97995601 728.69202955 2392.4715575 734.66665709 C2398.47448399 744.94229457 2404.44867925 755.23330512 2410.38171375 765.54946959 C2415.49957587 774.4459402 2420.69328882 783.29343673 2425.94421375 792.11196959 C2432.12580984 802.49735184 2438.16524593 812.95457996 2444.14270008 823.458161 C2450.1153517 833.95079289 2456.18867226 844.38259639 2462.28894031 854.80142272 C2465.20032076 859.77675508 2468.10307787 864.75711487 2471.00671375 869.73696959 C2474.49287524 875.71477262 2477.97995601 881.69202955 2481.4715575 887.66665709 C2487.47448399 897.94229457 2493.44867925 908.23330512 2499.38171375 918.54946959 C2504.49957488 927.44593848 2509.69318839 936.29349769 2514.94421375 945.11196959 C2520.7403429 954.84746839 2526.40998834 964.64586851 2532.00643909 974.49667418 C2536.91513726 983.13247172 2541.92074184 991.70383895 2547.00671375 1000.23696959 C2552.4756591 1009.41454769 2557.84820722 1018.63946742 2563.13171375 1027.92446959 C2569.77356426 1039.5958796 2576.50373144 1051.21276592 2583.28894031 1062.80142272 C2586.20032076 1067.77675508 2589.10307787 1072.75711487 2592.00671375 1077.73696959 C2595.49287524 1083.71477262 2598.97995601 1089.69202955 2602.4715575 1095.66665709 C2608.47448399 1105.94229457 2614.44867925 1116.23330512 2620.38171375 1126.54946959 C2625.49957587 1135.4459402 2630.69328882 1144.29343673 2635.94421375 1153.11196959 C2642.12580984 1163.49735184 2648.16524593 1173.95457996 2654.14270008 1184.458161 C2660.1153517 1194.95079289 2666.18867226 1205.38259639 2672.28894031 1215.80142272 C2675.20032076 1220.77675508 2678.10307787 1225.75711487 2681.00671375 1230.73696959 C2684.49287524 1236.71477262 2687.97995601 1242.69202955 2691.4715575 1248.66665709 C2697.47448399 1258.94229457 2703.44867925 1269.23330512 2709.38171375 1279.54946959 C2714.49957488 1288.44593848 2719.69318839 1297.29349769 2724.94421375 1306.11196959 C2730.7403429 1315.84746839 2736.40998834 1325.64586851 2742.00643909 1335.49667418 C2746.91513726 1344.13247172 2751.92074184 1352.70383895 2757.00671375 1361.23696959 C2762.4756591 1370.41454769 2767.84820722 1379.63946742 2773.13171375 1388.92446959 C2779.77356426 1400.5958796 2786.50373144 1412.21276592 2793.28894031 1423.80142272 C2796.20032076 1428.77675508 2799.10307787 1433.75711487 2802.00671375 1438.73696959 C2805.49287524 1444.71477262 2808.97995601 1450.69202955 2812.4715575 1456.66665709 C2818.47448399 1466.94229457 2824.44867925 1477.23330512 2830.38171375 1487.54946959 C2835.49957587 1496.4459402 2840.69328882 1505.29343673 2845.94421375 1514.11196959 C2852.12580984 1524.49735184 2858.16524593 1534.95457996 2864.14270008 1545.458161 C2870.1153517 1555.95079289 2876.18867226 1566.38259639 2882.28894031 1576.80142272 C2885.20032076 1581.77675508 2888.10307787 1586.75711487 2891.00671375 1591.73696959 C2894.49287524 1597.71477262 2897.97995601 1603.69202955 2901.4715575 1609.66665709 C2907.47448399 1619.94229457 2913.44867925 1630.23330512 2919.38171375 1640.54946959 C2924.49957488 1649.44593848 2929.69318839 1658.29349769 2934.94421375 1667.11196959 C2940.7403429 1676.84746839 2946.40998834 1686.64586851 2952.00643909 1696.49667418 C2956.91513726 1705.13247172 2961.92074184 1713.70383895 2967.00671375 1722.23696959 C2972.4756591 1731.41454769 2977.84820722 1740.63946742 2983.13171375 1749.92446959 C2989.77356426 1761.5958796 2996.50373144 1773.21276592 3003.28894031 1784.80142272 C3006.20032076 1789.77675508 3009.10307787 1794.75711487 3012.00671375 1799.73696959 C3015.49287524 1805.71477262 3018.97995601 1811.69202955 3022.4715575 1817.66665709 C3028.47448399 1827.94229457 3034.44867925 1838.23330512 3040.38171375 1848.54946959 C3045.49957587 1857.4459402 3050.69328882 1866.29343673 3055.94421375 1875.11196959 C3062.12580984 1885.49735184 3068.16524593 1895.95457996 3074.14270008 1906.458161 C3080.1153517 1916.95079289 3086.18867226 1927.38259639 3092.28894031 1937.80142272 C3095.20032076 1942.77675508 3098.10307787 1947.75711487 3101.00671375 1952.73696959 C3104.49287524 1958.71477262 3107.97995601 1964.69202955 3111.4715575 1970.66665709 C3117.47448399 1980.94229457 3123.44867925 1991.23330512 3129.38171375 2001.54946959 C3134.49957488 2010.44593848 3139.69318839 2019.29349769 3144.94421375 2028.11196959 C3150.7403429 2037.84746839 3156.40998834 2047.64586851 3162.00643909 2057.49667418 C3166.91513726 2066.13247172 3171.92074184 2074.70383895 3177.00671375 2083.23696959 C3182.4756591 2092.41454769 3187.84820722 2101.63946742 3193.13171375 2110.92446959 C3199.77356426 2122.5958796 3206.50373144 2134.21276592 3213.28894031 2145.80142272 C3216.20032076 2150.77675508 3219.10307787 2155.75711487 3222.00671375 2160.73696959 C3225.49287524 2166.71477262 3228.97995601 2172.69202955 3232.4715575 2178.66665709 C3238.47448399 2188.94229457 3244.44867925 2199.23330512 3250.38171375 2209.54946959 C3255.49957587 2218.4459402 3260.69328882 2227.29343673 3265.94421375 2236.11196959 C3272.12580984 2246.49735184 3278.16524593 2256.95457996 3284.14270008 2267.458161 C3290.1153517 2277.95079289 3296.18867226 2288.38259639 3302.28894031 2298.80142272 C3305.20032076 2303.77675508 3308.10307787 2308.75711487 3311.00671375 2313.73696959 C3314.49287524 2319.71477262 3317.97995601 2325.69202955 3321.4715575 2331.66665709 C3327.47448399 2341.94229457 3333.44867925 2352.23330512 3339.38171375 2362.54946959 C3344.49957488 2371.44593848 3349.69318839 2380.29349769 3354.94421375 2389.11196959 C3360.7403429 2398.84746839 3366.40998834 2408.64586851 3372.00643909 2418.49667418 C3376.91513726 2427.13247172 3381.92074184 2435.70383895 3387.00671375 2444.23696959 C3392.4756591 2453.41454769 3397.84820722 2462.63946742 3403.13171375 2471.92446959 C3409.77356426 2483.5958796 3416.50373144 2495.21276592 3423.28894031 2506.80142272 C3426.20032076 2511.77675508 3429.10307787 2516.75711487 3432.00671375 2521.73696959 C3435.49287524 2527.71477262 3438.97995601 2533.69202955 3442.4715575 2539.66665709 C3448.47448413 2549.94229481 3454.44864905 2560.23332232 3460.38171375 2570.54946959 C3465.66729124 2579.73690027 3471.02911831 2588.87559468 3476.44421375 2597.98696959 C3485.61483766 2613.42876266 3485.61483766 2613.42876266 3489.00671375 2619.29946959 C3489.60483875 2620.33200865 3490.20296375 2621.36454772 3490.81921375 2622.42837584 C3492.00671375 2624.73696959 3492.00671375 2624.73696959 3492.00671375 2626.73696959 C3429.44325981 2626.77737673 3366.88130066 2626.6981199 3304.31824394 2626.47538205 C3292.68437303 2626.43404064 3281.05049521 2626.39479368 3269.4166171 2626.35553746 C3247.69488854 2626.28218556 3225.97316564 2626.20727001 3204.25144565 2626.13142455 C3182.31373474 2626.05483059 3160.37602139 2625.97899765 3138.43830478 2625.90405142 C3137.73957271 2625.90166398 3137.04084064 2625.89927654 3136.32093487 2625.89681675 C3129.91480193 2625.87492818 3123.50866895 2625.85304703 3117.10253595 2625.83117476 C3101.0541597 2625.77638027 3085.00578387 2625.72146654 3068.95740831 2625.666471 C3068.22286768 2625.66395388 3067.48832705 2625.66143676 3066.73152762 2625.65884336 C3030.73104176 2625.53546539 2994.73056041 2625.41079041 2958.73007953 2625.28596747 C2957.56295968 2625.28192079 2957.56295968 2625.28192079 2956.37226165 2625.27779236 C2953.22189518 2625.26686927 2950.0715287 2625.25594611 2946.92116223 2625.2450229 C2938.21427731 2625.21483388 2929.50739238 2625.18464874 2920.80050743 2625.15446842 C2920.01405837 2625.15174231 2919.22760932 2625.14901621 2918.41732848 2625.14620749 C2881.7676413 2625.019171 2845.11795158 2624.89287604 2808.46826132 2624.76673071 C2804.45467492 2624.75291596 2800.44108852 2624.73909966 2796.42750212 2624.72528342 C2789.98405418 2624.70310287 2783.54060624 2624.68092267 2777.09715829 2624.65874308 C2776.29800816 2624.65599225 2775.49885802 2624.65324142 2774.67549122 2624.65040723 C2769.82429575 2624.63370857 2764.97310028 2624.61701061 2760.12190481 2624.60031302 C2723.22410569 2624.47331186 2686.32630698 2624.3461906 2649.42850864 2624.21896327 C2648.60725158 2624.21613152 2647.78599451 2624.21329978 2646.93985087 2624.21038222 C2593.83377606 2624.02726693 2540.72770313 2623.8436093 2487.6216315 2623.65957034 C2485.91148459 2623.65364394 2484.20133768 2623.64771755 2482.49119076 2623.64179117 C2463.61764109 2623.57638585 2444.74409146 2623.51096922 2425.87054184 2623.44554836 C2425.0188459 2623.44259616 2424.16714996 2623.43964395 2423.28964505 2623.43660229 C2415.53995642 2623.40973978 2407.79026779 2623.38287726 2400.04057917 2623.35601389 C2314.48553772 2623.05944844 2228.93049402 2622.76355953 2076.24543416 2622.23922119 C2047.99694203 2622.14226725 2019.74844991 2622.04530719 1991.49995792 2621.9483124 C1990.23427627 2621.94396659 1990.23427627 2621.94396659 1988.9430253 2621.93953299 C1935.92429904 2621.75748816 1882.9055746 2621.57492004 1829.88685215 2621.39176905 C1829.06542877 2621.38893153 1828.24400539 2621.38609401 1827.3976904 2621.3831705 C1790.47684585 2621.25563 1753.55600178 2621.12795331 1716.63515814 2621.00015041 C1703.71438364 2620.95542496 1690.79360911 2620.91070818 1677.87283457 2620.86599393 C1674.65945368 2620.8548735 1671.4460728 2620.84375233 1668.23269192 2620.83263056 C1631.60414776 2620.70585784 1594.97560267 2620.57936476 1558.34705436 2620.45379627 C1557.17213655 2620.44976838 1557.17213655 2620.44976838 1555.97348303 2620.44565911 C1543.38381635 2620.40250006 1530.79414959 2620.35936261 1518.20448284 2620.31622547 C1482.26765047 2620.19309007 1446.33081907 2620.06969191 1410.39399278 2619.94479132 C1409.6572759 2619.94223088 1408.92055902 2619.93967045 1408.16151738 2619.93703243 C1392.04797861 2619.88102564 1375.93444025 2619.82489799 1359.8209023 2619.76865336 C1353.38406655 2619.7461871 1346.94723075 2619.72373573 1340.51039493 2619.70128882 C1339.80846335 2619.69884058 1339.10653176 2619.69639234 1338.38332952 2619.69386991 C1317.18326158 2619.61993361 1295.98318996 2619.547153 1274.78311527 2619.47517836 C1244.63785219 2619.37277079 1214.49259596 2619.26854021 1184.34735096 2619.16093504 C1183.17114336 2619.15674001 1181.99493576 2619.15254498 1180.78308551 2619.14822283 C1090.52334046 2618.8258612 1000.26497043 2618.34532449 910.00671375 2617.73696959 C909.91960535 2527.32648638 909.91960535 2527.32648638 909.94180286 2483.8963629 C909.94268653 2482.08944242 909.94268653 2482.08944242 909.94358804 2480.24601849 C909.9795505 2409.85863861 910.21079094 2339.47180299 910.44982898 2269.08486998 C910.45269842 2268.23896358 910.45556786 2267.39305718 910.45852425 2266.52151725 C910.61111622 2221.53895552 910.77048533 2176.5564185 910.93250992 2131.57388986 C911.03264337 2103.7722156 911.13123499 2075.97053624 911.22868526 2048.16885245 C911.23554028 2046.21366509 911.24239544 2044.25847772 911.24925074 2042.30329036 C911.27682322 2034.43884611 911.30438751 2026.57440182 911.33194124 2018.7099575 C911.40886054 1996.75652759 911.48601432 1974.80309851 911.5633477 1952.84967005 C911.56686301 1951.85172025 911.57037832 1950.85377045 911.57400016 1949.82557975 C911.68529049 1918.23635526 911.79759909 1886.64713449 911.91065872 1855.05791628 C911.91612402 1853.53086007 911.91612402 1853.53086007 911.92169974 1851.97295423 C911.98080374 1835.45987489 912.03996866 1818.94679576 912.0991374 1802.43371666 C912.33403085 1736.87750313 912.56595093 1671.32127981 912.79504383 1605.76504576 C912.80955832 1601.61186514 912.82407314 1597.45868453 912.83858799 1593.30550391 C912.84217718 1592.27851271 912.84576637 1591.25152152 912.84946432 1590.19340937 C912.88924138 1578.81198195 912.92902771 1567.43055457 912.96882522 1556.04912722 C912.97239656 1555.02772537 912.9759679 1554.00632352 912.97964746 1552.95397009 C913.17373651 1497.44754928 913.37020117 1441.94113689 913.56746048 1386.43472725 C913.59181952 1379.57979485 913.61617683 1372.72486245 913.64053368 1365.86993004 C913.65091391 1362.94875559 913.66129637 1360.02758114 913.67167898 1357.1064067 C913.74684238 1335.95663718 913.82169981 1314.80686664 913.89567435 1293.65709293 C913.89896473 1292.71637278 913.90225511 1291.77565264 913.9056452 1290.80642582 C913.92219056 1286.07554298 913.93873014 1281.34466011 913.95526747 1276.61377724 C914.07616766 1242.02810413 914.19874706 1207.4424376 914.32406133 1172.85678018 C914.33658054 1169.39976341 914.34909251 1165.94274662 914.36159885 1162.48572981 C914.36466746 1161.63771554 914.36773606 1160.78970127 914.37089766 1159.9159896 C914.41530321 1147.63368998 914.45838948 1135.35138628 914.50063121 1123.06907904 C914.56321215 1104.89526033 914.62803385 1086.72145083 914.6966399 1068.54765379 C914.69935279 1067.82796675 914.70206569 1067.10827971 914.7048608 1066.36678396 C914.97017327 996.15574689 915.46958357 925.9463874 916.00671375 855.73696959 C914.74707309 855.74199492 913.48743244 855.74702025 912.18962085 855.75219786 C908.86089135 855.76547781 905.64606113 855.56396799 902.338745 855.15103209 C901.29581287 855.02583189 900.25288074 854.9006317 899.17834461 854.77163756 C898.06983142 854.63644713 896.96131824 854.5012567 895.81921375 854.36196959 C881.24010994 852.67027825 866.65797989 851.57191851 852.00671375 850.73696959 C851.0110741 850.67767272 850.01543445 850.61837584 848.9896239 850.55728209 C755.63719261 845.22013441 660.35365815 854.2809341 557.00671375 875.73696959 C556.28066944 875.89361083 555.55462512 876.05025206 554.80657947 876.21164 C493.8455542 889.43417224 434.09978135 908.61080076 377.00671375 933.73696959 C376.05312976 934.1559149 375.09954578 934.57486022 374.11706531 935.00650084 C347.42503168 946.81276837 321.12927486 959.87122383 296.00671375 974.73696959 C294.63942127 975.54134459 294.63942127 975.54134459 293.24450672 976.36196959 C262.33785128 994.61643158 232.90181961 1015.15521722 205.00671375 1037.73696959 C204.11210437 1038.45626647 203.217495 1039.17556334 202.29577625 1039.91665709 C196.83408472 1044.33802642 191.53517225 1048.88980579 186.338745 1053.61978209 C184.24847486 1055.51748128 182.1368526 1057.38430374 180.00671375 1059.23696959 C178.67283623 1060.40301404 177.33957752 1061.5697665 176.00671375 1062.73696959 C175.33213123 1063.32470152 174.65754871 1063.91243346 173.96252429 1064.51797545 C166.63605602 1070.99947832 159.72325384 1077.86799341 152.81945789 1084.79385436 C150.81594388 1086.80274823 148.80711223 1088.80621349 146.79772937 1090.80923522 C140.65458284 1096.9491928 134.60622659 1103.08996078 129.00671375 1109.73696959 C127.55225858 1111.34465332 126.0945048 1112.94936674 124.63171375 1114.54946959 C120.7874313 1118.81442267 117.1114447 1123.18557809 113.5028075 1127.65103209 C111.69473219 1129.88636776 109.87558612 1132.10885164 108.04187 1134.32290709 C86.33877216 1160.60669265 66.93999796 1189.15558299 50.00671375 1218.73696959 C49.48319324 1219.64559752 48.95967273 1220.55422545 48.42028797 1221.49038756 C44.55691394 1228.20688875 40.75511853 1234.95565358 37.00671375 1241.73696959 C36.56617664 1242.53393248 36.12563953 1243.33089537 35.67175281 1244.15200865 C5.86943709 1298.47551155 -14.98966797 1357.07281897 -21.99328625 1418.73696959 C-22.09786145 1419.62916197 -22.20243664 1420.52135436 -22.31018078 1421.44058287 C-23.38580413 1432.12177287 -23.23719687 1442.88825688 -23.24328625 1453.61196959 C-23.243961 1454.68009886 -23.24463574 1455.74822814 -23.24533093 1456.84872496 C-23.22782507 1474.34051355 -22.50062881 1491.4032824 -19.99328625 1508.73696959 C-19.82167981 1509.94836607 -19.65007336 1511.15976256 -19.47326672 1512.40786803 C-9.01355322 1584.36396678 17.94780285 1653.80743799 53.48229969 1717.01626647 C55.0917975 1719.88882311 56.67935272 1722.77280004 58.26452625 1725.65884459 C70.9114388 1748.59319823 84.53502899 1770.90853161 99.00671375 1792.73696959 C99.68347156 1793.76564147 100.36022937 1794.79431334 101.057495 1795.85415709 C103.0237191 1798.82665007 105.00942522 1801.78531556 107.00671375 1804.73696959 C107.53490711 1805.51765807 108.06310047 1806.29834654 108.60729969 1807.10269225 C123.69250977 1829.36997003 139.28512022 1851.19346374 155.46765125 1872.67642272 C158.15066477 1876.24312719 160.81035072 1879.82518655 163.44421375 1883.42837584 C169.85250554 1892.19436882 176.37406264 1900.81639258 183.2059325 1909.25650084 C185.88046533 1912.56411349 188.48584131 1915.92038565 191.06921375 1919.29946959 C204.15959885 1936.41058568 217.72715281 1953.13984081 231.3465575 1969.83071959 C236.4996418 1976.15166332 241.61947788 1982.49106779 246.63171375 1988.92446959 C250.66653413 1994.10069534 254.83692846 1999.1395515 259.09753406 2004.13101256 C262.41129334 2008.01680391 265.62631751 2011.96680101 268.7996825 2015.96743834 C271.57544835 2019.45065602 274.38376775 2022.90671339 277.19421375 2026.36196959 C277.74746326 2027.04275572 278.30071277 2027.72354186 278.87072742 2028.42495787 C281.70306245 2031.9090923 284.53942525 2035.38985616 287.38171375 2038.86587584 C293.19534829 2045.98403742 298.90857835 2053.15688922 304.48327625 2060.46353209 C307.25196328 2064.07534032 310.09473075 2067.6262628 312.94421375 2071.17446959 C319.14240463 2078.89252337 325.25784234 2086.67334215 331.36120594 2094.46646178 C332.72159763 2096.20294448 334.08266674 2097.93889261 335.44421375 2099.67446959 C335.89691638 2100.25164732 336.34961902 2100.82882506 336.81603992 2101.42349303 C339.65085084 2105.03097896 342.5110887 2108.61679702 345.38732898 2112.19131529 C361.39580982 2132.096649 376.72670841 2152.55487052 391.00671375 2173.73696959 C391.41840808 2174.34427916 391.83010242 2174.95158873 392.25427234 2175.57730162 C421.61109346 2218.90913224 448.43268007 2265.06822548 459.38171375 2316.73696959 C459.63283924 2317.91750914 459.88396472 2319.09804869 460.14270008 2320.31436217 C468.459257 2361.72309956 461.40586942 2405.5198293 438.18640125 2440.9918524 C431.65331367 2450.65627914 424.04026912 2459.30485023 416.00671375 2467.73696959 C415.08438953 2468.72116881 415.08438953 2468.72116881 414.1434325 2469.72525084 C357.0694009 2528.9787204 260.69526565 2546.94465953 -107.98730481 2581.67837584 C-111.1941082 2581.74088409 -114.4008215 2581.80716793 -117.60754406 2581.87368834 C-152.31625276 2582.58193422 -187.02061399 2582.84147975 -221.73623669 2582.85990584 C-224.64150318 2582.86189974 -227.54676242 2582.86562629 -230.45202649 2582.86981261 C-252.79207909 2582.89781735 -275.12323223 2582.72526649 -297.46035341 2582.35990758 C-340.18058655 2581.66499412 -382.90109318 2581.47233755 -425.6261018 2581.3096335 C-436.77883785 2581.26700218 -447.93155486 2581.22004278 -459.08427316 2581.17302999 C-479.69813076 2581.08624511 -500.31200015 2581.00267958 -520.92587864 2580.9210211 C-541.40763781 2580.83986833 -561.88938946 2580.75708735 -582.37113392 2580.67230284 C-583.65921131 2580.66697132 -584.94728869 2580.6616398 -586.27439872 2580.65614671 C-592.82333243 2580.6290304 -599.37226601 2580.60188427 -605.92119954 2580.57472539 C-619.23634154 2580.51951812 -632.55148449 2580.46454031 -645.86662781 2580.40965331 C-646.53261927 2580.40690777 -647.19861073 2580.40416223 -647.88478374 2580.40133349 C-680.16581711 2580.26827309 -712.44686058 2580.13772902 -744.72790539 2580.0074774 C-755.88798031 2579.96244458 -767.0480552 2579.91740679 -778.20813 2579.87234557 C-778.89931174 2579.86955488 -779.59049348 2579.86676419 -780.30262012 2579.86388894 C-812.16894833 2579.73521918 -844.03527131 2579.6052794 -875.90159254 2579.47489331 C-877.96165122 2579.46646435 -880.0217099 2579.45803627 -882.08176859 2579.44960834 C-912.72033964 2579.32425835 -943.35890939 2579.19859224 -973.99747783 2579.07260569 C-976.69204574 2579.06152575 -979.38661365 2579.05044695 -982.08118157 2579.03936811 C-985.43803228 2579.02556616 -988.79488299 2579.01176348 -992.1517337 2578.99796069 C-992.81485665 2578.99523406 -993.47797961 2578.99250744 -994.1611972 2578.98969819 C-1001.4937267 2578.95954791 -1008.82625616 2578.92938942 -1016.15878556 2578.89921379 C-1044.44711281 2578.78280607 -1072.73544193 2578.66690981 -1101.02377903 2578.55291808 C-1102.2468069 2578.54798959 -1103.46983478 2578.5430611 -1104.7299241 2578.53798326 C-1106.55934938 2578.53061119 -1106.55934938 2578.53061119 -1108.42573275 2578.52309018 C-1134.7785765 2578.41688933 -1161.13141701 2578.30991106 -1187.48425305 2578.20181334 C-1188.62974512 2578.1971165 -1189.77523718 2578.19241966 -1190.95544113 2578.1875805 C-1290.9684351 2577.77727718 -1390.98090421 2577.27489238 -1490.99328625 2576.73696959 C-1489.67227883 2572.64372204 -1488.21938232 2569.09290484 -1486.0440675 2565.37759459 C-1485.45109875 2564.35794615 -1484.85813 2563.33829772 -1484.2471925 2562.28775084 C-1483.28619641 2560.65386412 -1483.28619641 2560.65386412 -1482.30578625 2558.98696959 C-1481.63071986 2557.82975987 -1480.95625163 2556.67220102 -1480.28234875 2555.51431334 C-1478.8831282 2553.11126377 -1477.4813569 2550.70973039 -1476.07775891 2548.30923522 C-1472.85879241 2542.79910114 -1469.67813596 2537.26686601 -1466.49328625 2531.73696959 C-1465.24474804 2529.57281495 -1463.99604957 2527.40875275 -1462.7471925 2525.24478209 C-1460.2325919 2520.88631571 -1457.71973964 2516.52684768 -1455.20813 2512.16665709 C-1448.59105734 2500.68248139 -1441.94694648 2489.21500065 -1435.2603761 2477.77114928 C-1429.09409572 2467.21076677 -1422.98832676 2456.61570193 -1416.88439953 2446.01919615 C-1413.75648477 2440.59037017 -1410.62470177 2435.16377678 -1407.49328625 2429.73696959 C-1406.24326746 2427.57031376 -1404.99326747 2425.40364709 -1403.74328625 2423.23696959 C-1396.24328625 2410.23696959 -1388.74328625 2397.23696959 -1381.24328625 2384.23696959 C-1380.62445569 2383.16430846 -1380.00562512 2382.09164732 -1379.36804211 2380.98648131 C-1378.11893107 2378.82139888 -1376.86974496 2376.65635977 -1375.62048352 2374.49136412 C-1372.48126316 2369.05081253 -1369.34338062 2363.60949743 -1366.20813 2358.16665709 C-1359.59105734 2346.68248139 -1352.94694648 2335.21500065 -1346.2603761 2323.77114928 C-1340.09409572 2313.21076677 -1333.98832676 2302.61570193 -1327.88439953 2292.01919615 C-1324.75648477 2286.59037017 -1321.62470177 2281.16377678 -1318.49328625 2275.73696959 C-1317.24326746 2273.57031376 -1315.99326747 2271.40364709 -1314.74328625 2269.23696959 C-1312.24328625 2264.90363626 -1309.74328625 2260.57030292 -1307.24328625 2256.23696959 C-1306.62445569 2255.16430846 -1306.00562512 2254.09164732 -1305.36804211 2252.98648131 C-1304.11893107 2250.82139888 -1302.86974496 2248.65635977 -1301.62048352 2246.49136412 C-1298.48126316 2241.05081253 -1295.34338062 2235.60949743 -1292.20813 2230.16665709 C-1285.59105734 2218.68248139 -1278.94694648 2207.21500065 -1272.2603761 2195.77114928 C-1266.09409572 2185.21076677 -1259.98832676 2174.61570193 -1253.88439953 2164.01919615 C-1250.75648477 2158.59037017 -1247.62470177 2153.16377678 -1244.49328625 2147.73696959 C-1243.24326746 2145.57031376 -1241.99326747 2143.40364709 -1240.74328625 2141.23696959 C-1233.24328625 2128.23696959 -1225.74328625 2115.23696959 -1218.24328625 2102.23696959 C-1217.62445569 2101.16430846 -1217.00562512 2100.09164732 -1216.36804211 2098.98648131 C-1215.11893107 2096.82139888 -1213.86974496 2094.65635977 -1212.62048352 2092.49136412 C-1209.48126316 2087.05081253 -1206.34338062 2081.60949743 -1203.20813 2076.16665709 C-1196.59105734 2064.68248139 -1189.94694648 2053.21500065 -1183.2603761 2041.77114928 C-1177.09409572 2031.21076677 -1170.98832676 2020.61570193 -1164.88439953 2010.01919615 C-1161.75648477 2004.59037017 -1158.62470177 1999.16377678 -1155.49328625 1993.73696959 C-1154.24326746 1991.57031376 -1152.99326747 1989.40364709 -1151.74328625 1987.23696959 C-1144.24328625 1974.23696959 -1136.74328625 1961.23696959 -1129.24328625 1948.23696959 C-1128.62445569 1947.16430846 -1128.00562512 1946.09164732 -1127.36804211 1944.98648131 C-1126.11893107 1942.82139888 -1124.86974496 1940.65635977 -1123.62048352 1938.49136412 C-1120.48126316 1933.05081253 -1117.34338062 1927.60949743 -1114.20813 1922.16665709 C-1107.59105734 1910.68248139 -1100.94694648 1899.21500065 -1094.2603761 1887.77114928 C-1088.09409572 1877.21076677 -1081.98832676 1866.61570193 -1075.88439953 1856.01919615 C-1072.75648477 1850.59037017 -1069.62470177 1845.16377678 -1066.49328625 1839.73696959 C-1065.24326746 1837.57031376 -1063.99326747 1835.40364709 -1062.74328625 1833.23696959 C-1060.24328625 1828.90363626 -1057.74328625 1824.57030292 -1055.24328625 1820.23696959 C-1054.62445569 1819.16430846 -1054.00562512 1818.09164732 -1053.36804211 1816.98648131 C-1052.11893107 1814.82139888 -1050.86974496 1812.65635977 -1049.62048352 1810.49136412 C-1046.48126316 1805.05081253 -1043.34338062 1799.60949743 -1040.20813 1794.16665709 C-1033.59105734 1782.68248139 -1026.94694648 1771.21500065 -1020.2603761 1759.77114928 C-1014.09409572 1749.21076677 -1007.98832676 1738.61570193 -1001.88439953 1728.01919615 C-998.75648477 1722.59037017 -995.62470177 1717.16377678 -992.49328625 1711.73696959 C-991.24326746 1709.57031376 -989.99326747 1707.40364709 -988.74328625 1705.23696959 C-981.24328625 1692.23696959 -973.74328625 1679.23696959 -966.24328625 1666.23696959 C-965.62445569 1665.16430846 -965.00562512 1664.09164732 -964.36804211 1662.98648131 C-963.11893107 1660.82139888 -961.86974496 1658.65635977 -960.62048352 1656.49136412 C-957.48126316 1651.05081253 -954.34338062 1645.60949743 -951.20813 1640.16665709 C-944.59105734 1628.68248139 -937.94694648 1617.21500065 -931.2603761 1605.77114928 C-925.09409572 1595.21076677 -918.98832676 1584.61570193 -912.88439953 1574.01919615 C-909.75648477 1568.59037017 -906.62470177 1563.16377678 -903.49328625 1557.73696959 C-902.24326746 1555.57031376 -900.99326747 1553.40364709 -899.74328625 1551.23696959 C-897.24328625 1546.90363626 -894.74328625 1542.57030292 -892.24328625 1538.23696959 C-891.62445569 1537.16430846 -891.00562512 1536.09164732 -890.36804211 1534.98648131 C-889.11893107 1532.82139888 -887.86974496 1530.65635977 -886.62048352 1528.49136412 C-883.48126316 1523.05081253 -880.34338062 1517.60949743 -877.20813 1512.16665709 C-870.59105734 1500.68248139 -863.94694648 1489.21500065 -857.2603761 1477.77114928 C-851.09409572 1467.21076677 -844.98832676 1456.61570193 -838.88439953 1446.01919615 C-835.75648477 1440.59037017 -832.62470177 1435.16377678 -829.49328625 1429.73696959 C-828.24326746 1427.57031376 -826.99326747 1425.40364709 -825.74328625 1423.23696959 C-818.24328625 1410.23696959 -810.74328625 1397.23696959 -803.24328625 1384.23696959 C-802.62445569 1383.16430846 -802.00562512 1382.09164732 -801.36804211 1380.98648131 C-800.11893107 1378.82139888 -798.86974496 1376.65635977 -797.62048352 1374.49136412 C-794.48126316 1369.05081253 -791.34338062 1363.60949743 -788.20813 1358.16665709 C-781.59105734 1346.68248139 -774.94694648 1335.21500065 -768.2603761 1323.77114928 C-762.09409572 1313.21076677 -755.98832676 1302.61570193 -749.88439953 1292.01919615 C-746.75648477 1286.59037017 -743.62470177 1281.16377678 -740.49328625 1275.73696959 C-739.24326746 1273.57031376 -737.99326747 1271.40364709 -736.74328625 1269.23696959 C-729.24328625 1256.23696959 -721.74328625 1243.23696959 -714.24328625 1230.23696959 C-713.62445569 1229.16430846 -713.00562512 1228.09164732 -712.36804211 1226.98648131 C-711.11893107 1224.82139888 -709.86974496 1222.65635977 -708.62048352 1220.49136412 C-705.48126316 1215.05081253 -702.34338062 1209.60949743 -699.20813 1204.16665709 C-692.59105734 1192.68248139 -685.94694648 1181.21500065 -679.2603761 1169.77114928 C-673.09409572 1159.21076677 -666.98832676 1148.61570193 -660.88439953 1138.01919615 C-657.75648477 1132.59037017 -654.62470177 1127.16377678 -651.49328625 1121.73696959 C-650.24326746 1119.57031376 -648.99326747 1117.40364709 -647.74328625 1115.23696959 C-645.24328625 1110.90363626 -642.74328625 1106.57030292 -640.24328625 1102.23696959 C-639.62445569 1101.16430846 -639.00562512 1100.09164732 -638.36804211 1098.98648131 C-637.11893107 1096.82139888 -635.86974496 1094.65635977 -634.62048352 1092.49136412 C-631.48126316 1087.05081253 -628.34338062 1081.60949743 -625.20813 1076.16665709 C-618.59105734 1064.68248139 -611.94694648 1053.21500065 -605.2603761 1041.77114928 C-599.09409572 1031.21076677 -592.98832676 1020.61570193 -586.88439953 1010.01919615 C-583.75648477 1004.59037017 -580.62470177 999.16377678 -577.49328625 993.73696959 C-576.24326746 991.57031376 -574.99326747 989.40364709 -573.74328625 987.23696959 C-566.24328625 974.23696959 -558.74328625 961.23696959 -551.24328625 948.23696959 C-550.62445569 947.16430846 -550.00562512 946.09164732 -549.36804211 944.98648131 C-548.11893107 942.82139888 -546.86974496 940.65635977 -545.62048352 938.49136412 C-542.48126316 933.05081253 -539.34338062 927.60949743 -536.20813 922.16665709 C-529.59105734 910.68248139 -522.94694648 899.21500065 -516.2603761 887.77114928 C-510.09409572 877.21076677 -503.98832676 866.61570193 -497.88439953 856.01919615 C-494.75648477 850.59037017 -491.62470177 845.16377678 -488.49328625 839.73696959 C-487.24326746 837.57031376 -485.99326747 835.40364709 -484.74328625 833.23696959 C-477.24328625 820.23696959 -469.74328625 807.23696959 -462.24328625 794.23696959 C-461.62445569 793.16430846 -461.00562512 792.09164732 -460.36804211 790.98648131 C-459.11893107 788.82139888 -457.86974496 786.65635977 -456.62048352 784.49136412 C-453.48126316 779.05081253 -450.34338062 773.60949743 -447.20813 768.16665709 C-440.59105734 756.68248139 -433.94694648 745.21500065 -427.2603761 733.77114928 C-421.09409572 723.21076677 -414.98832676 712.61570193 -408.88439953 702.01919615 C-405.75648477 696.59037017 -402.62470177 691.16377678 -399.49328625 685.73696959 C-398.24326746 683.57031376 -396.99326747 681.40364709 -395.74328625 679.23696959 C-393.24328625 674.90363626 -390.74328625 670.57030292 -388.24328625 666.23696959 C-387.62445569 665.16430846 -387.00562512 664.09164732 -386.36804211 662.98648131 C-385.11893107 660.82139888 -383.86974496 658.65635977 -382.62048352 656.49136412 C-379.48126316 651.05081253 -376.34338062 645.60949743 -373.20813 640.16665709 C-366.59105734 628.68248139 -359.94694648 617.21500065 -353.2603761 605.77114928 C-347.09409572 595.21076677 -340.98832676 584.61570193 -334.88439953 574.01919615 C-331.75648477 568.59037017 -328.62470177 563.16377678 -325.49328625 557.73696959 C-324.24326746 555.57031376 -322.99326747 553.40364709 -321.74328625 551.23696959 C-314.24328625 538.23696959 -306.74328625 525.23696959 -299.24328625 512.23696959 C-298.62445569 511.16430846 -298.00562512 510.09164732 -297.36804211 508.98648131 C-296.11893107 506.82139888 -294.86974496 504.65635977 -293.62048352 502.49136412 C-290.48126316 497.05081253 -287.34338062 491.60949743 -284.20813 486.16665709 C-277.59105734 474.68248139 -270.94694648 463.21500065 -264.2603761 451.77114928 C-258.09409572 441.21076677 -251.98832676 430.61570193 -245.88439953 420.01919615 C-242.75648477 414.59037017 -239.62470177 409.16377678 -236.49328625 403.73696959 C-235.24326746 401.57031376 -233.99326747 399.40364709 -232.74328625 397.23696959 C-230.24328625 392.90363626 -227.74328625 388.57030292 -225.24328625 384.23696959 C-224.62445569 383.16430846 -224.00562512 382.09164732 -223.36804211 380.98648131 C-222.11893107 378.82139888 -220.86974496 376.65635977 -219.62048352 374.49136412 C-216.48126316 369.05081253 -213.34338062 363.60949743 -210.20813 358.16665709 C-203.59105734 346.68248139 -196.94694648 335.21500065 -190.2603761 323.77114928 C-184.09409572 313.21076677 -177.98832676 302.61570193 -171.88439953 292.01919615 C-168.75648477 286.59037017 -165.62470177 281.16377678 -162.49328625 275.73696959 C-161.24326746 273.57031376 -159.99326747 271.40364709 -158.74328625 269.23696959 C-151.24328625 256.23696959 -143.74328625 243.23696959 -136.24328625 230.23696959 C-135.62445569 229.16430846 -135.00562512 228.09164732 -134.36804211 226.98648131 C-133.11893107 224.82139888 -131.86974496 222.65635977 -130.62048352 220.49136412 C-127.48126316 215.05081253 -124.34338062 209.60949743 -121.20813 204.16665709 C-114.59105734 192.68248139 -107.94694648 181.21500065 -101.2603761 169.77114928 C-95.09409572 159.21076677 -88.98832676 148.61570193 -82.88439953 138.01919615 C-79.75648477 132.59037017 -76.62470177 127.16377678 -73.49328625 121.73696959 C-72.24326746 119.57031376 -70.99326747 117.40364709 -69.74328625 115.23696959 C-62.24328625 102.23696959 -54.74328625 89.23696959 -47.24328625 76.23696959 C-46.62445569 75.16430846 -46.00562512 74.09164732 -45.36804211 72.98648131 C-44.11893107 70.82139888 -42.86974496 68.65635977 -41.62048352 66.49136412 C-38.48126316 61.05081253 -35.34338062 55.60949743 -32.20813 50.16665709 C-25.92581275 39.2627254 -19.63159944 28.36573537 -13.30578625 17.48696959 C-12.441349 15.99592711 -12.441349 15.99592711 -11.55944836 14.47476256 C-11.01812268 13.54550963 -10.47679699 12.6162567 -9.9190675 11.65884459 C-9.21391003 10.44599791 -9.21391003 10.44599791 -8.49450696 9.20864928 C-7.99910412 8.39299498 -7.50370129 7.57734068 -6.99328625 6.73696959 C-6.1605159 5.1977221 -6.1605159 5.1977221 -5.31092191 3.6273787 C-2.99328625 0.73696959 -2.99328625 0.73696959 0 0 Z M61.22379325 147.69503567 C60.4342529 149.76408637 59.68478333 151.84902677 58.98283496 153.94941085 C57.703222 157.60366632 55.94649074 160.58612186 53.88562 163.85415709 C52.77954067 165.77307611 51.67405647 167.69233831 50.56921375 169.61196959 C49.31011573 171.79687497 48.05100064 173.98177051 46.79187 176.16665709 C46.16683582 177.25172545 45.54180164 178.33679381 44.89782703 179.45474303 C41.76991227 184.88356901 38.63812927 190.3101624 35.50671375 195.73696959 C34.25669496 197.90362542 33.00669496 200.07029209 31.75671375 202.23696959 C29.25671375 206.57030292 26.75671375 210.90363626 24.25671375 215.23696959 C23.63788318 216.30963072 23.01905262 217.38229186 22.38146961 218.48745787 C21.13235857 220.6525403 19.88317246 222.81757941 18.63391101 224.98257506 C15.49469065 230.42312665 12.35680812 235.86444175 9.2215575 241.30728209 C2.60448483 252.79145779 -4.03962602 264.25893853 -10.72619641 275.7027899 C-16.89247679 286.26317241 -22.99824575 296.85823725 -29.10217297 307.45474303 C-32.23008773 312.88356901 -35.36187073 318.3101624 -38.49328625 323.73696959 C-39.74330504 325.90362542 -40.99330504 328.07029209 -42.24328625 330.23696959 C-49.74328625 343.23696959 -57.24328625 356.23696959 -64.74328625 369.23696959 C-65.36211682 370.30963072 -65.98094738 371.38229186 -66.61853039 372.48745787 C-67.86764143 374.6525403 -69.11682754 376.81757941 -70.36608899 378.98257506 C-73.50530935 384.42312665 -76.64319188 389.86444175 -79.7784425 395.30728209 C-86.39551517 406.79145779 -93.03962602 418.25893853 -99.72619641 429.7027899 C-105.89247679 440.26317241 -111.99824575 450.85823725 -118.10217297 461.45474303 C-121.23008773 466.88356901 -124.36187073 472.3101624 -127.49328625 477.73696959 C-128.74330504 479.90362542 -129.99330504 482.07029209 -131.24328625 484.23696959 C-133.74328625 488.57030292 -136.24328625 492.90363626 -138.74328625 497.23696959 C-139.36211682 498.30963072 -139.98094738 499.38229186 -140.61853039 500.48745787 C-141.86764143 502.6525403 -143.11682754 504.81757941 -144.36608899 506.98257506 C-147.50530935 512.42312665 -150.64319188 517.86444175 -153.7784425 523.30728209 C-160.39551517 534.79145779 -167.03962602 546.25893853 -173.72619641 557.7027899 C-179.89247679 568.26317241 -185.99824575 578.85823725 -192.10217297 589.45474303 C-195.23008773 594.88356901 -198.36187073 600.3101624 -201.49328625 605.73696959 C-202.74330504 607.90362542 -203.99330504 610.07029209 -205.24328625 612.23696959 C-212.74328625 625.23696959 -220.24328625 638.23696959 -227.74328625 651.23696959 C-228.36211682 652.30963072 -228.98094738 653.38229186 -229.61853039 654.48745787 C-230.86764143 656.6525403 -232.11682754 658.81757941 -233.36608899 660.98257506 C-236.50530935 666.42312665 -239.64319188 671.86444175 -242.7784425 677.30728209 C-249.39551517 688.79145779 -256.03962602 700.25893853 -262.72619641 711.7027899 C-268.89247679 722.26317241 -274.99824575 732.85823725 -281.10217297 743.45474303 C-284.23008773 748.88356901 -287.36187073 754.3101624 -290.49328625 759.73696959 C-291.74330504 761.90362542 -292.99330504 764.07029209 -294.24328625 766.23696959 C-301.74328625 779.23696959 -309.24328625 792.23696959 -316.74328625 805.23696959 C-317.36211682 806.30963072 -317.98094738 807.38229186 -318.61853039 808.48745787 C-319.86764143 810.6525403 -321.11682754 812.81757941 -322.36608899 814.98257506 C-325.50530935 820.42312665 -328.64319188 825.86444175 -331.7784425 831.30728209 C-338.39551517 842.79145779 -345.03962602 854.25893853 -351.72619641 865.7027899 C-357.89247679 876.26317241 -363.99824575 886.85823725 -370.10217297 897.45474303 C-373.23008773 902.88356901 -376.36187073 908.3101624 -379.49328625 913.73696959 C-380.74330504 915.90362542 -381.99330504 918.07029209 -383.24328625 920.23696959 C-385.74328625 924.57030292 -388.24328625 928.90363626 -390.74328625 933.23696959 C-391.36211682 934.30963072 -391.98094738 935.38229186 -392.61853039 936.48745787 C-393.86764143 938.6525403 -395.11682754 940.81757941 -396.36608899 942.98257506 C-399.50530935 948.42312665 -402.64319188 953.86444175 -405.7784425 959.30728209 C-412.39551517 970.79145779 -419.03962602 982.25893853 -425.72619641 993.7027899 C-431.89247679 1004.26317241 -437.99824575 1014.85823725 -444.10217297 1025.45474303 C-447.23008773 1030.88356901 -450.36187073 1036.3101624 -453.49328625 1041.73696959 C-454.74330504 1043.90362542 -455.99330504 1046.07029209 -457.24328625 1048.23696959 C-464.74328625 1061.23696959 -472.24328625 1074.23696959 -479.74328625 1087.23696959 C-480.36211682 1088.30963072 -480.98094738 1089.38229186 -481.61853039 1090.48745787 C-482.86764143 1092.6525403 -484.11682754 1094.81757941 -485.36608899 1096.98257506 C-488.50530935 1102.42312665 -491.64319188 1107.86444175 -494.7784425 1113.30728209 C-501.39551517 1124.79145779 -508.03962602 1136.25893853 -514.72619641 1147.7027899 C-520.89247679 1158.26317241 -526.99824575 1168.85823725 -533.10217297 1179.45474303 C-536.23008773 1184.88356901 -539.36187073 1190.3101624 -542.49328625 1195.73696959 C-543.74330504 1197.90362542 -544.99330504 1200.07029209 -546.24328625 1202.23696959 C-548.74328625 1206.57030292 -551.24328625 1210.90363626 -553.74328625 1215.23696959 C-554.36211682 1216.30963072 -554.98094738 1217.38229186 -555.61853039 1218.48745787 C-556.86764143 1220.6525403 -558.11682754 1222.81757941 -559.36608899 1224.98257506 C-562.50530935 1230.42312665 -565.64319188 1235.86444175 -568.7784425 1241.30728209 C-575.39551517 1252.79145779 -582.03962602 1264.25893853 -588.72619641 1275.7027899 C-594.89247679 1286.26317241 -600.99824575 1296.85823725 -607.10217297 1307.45474303 C-610.23008773 1312.88356901 -613.36187073 1318.3101624 -616.49328625 1323.73696959 C-617.74330504 1325.90362542 -618.99330504 1328.07029209 -620.24328625 1330.23696959 C-627.74328625 1343.23696959 -635.24328625 1356.23696959 -642.74328625 1369.23696959 C-643.36211682 1370.30963072 -643.98094738 1371.38229186 -644.61853039 1372.48745787 C-645.86764143 1374.6525403 -647.11682754 1376.81757941 -648.36608899 1378.98257506 C-651.50530935 1384.42312665 -654.64319188 1389.86444175 -657.7784425 1395.30728209 C-664.39551517 1406.79145779 -671.03962602 1418.25893853 -677.72619641 1429.7027899 C-683.89247679 1440.26317241 -689.99824575 1450.85823725 -696.10217297 1461.45474303 C-699.23008773 1466.88356901 -702.36187073 1472.3101624 -705.49328625 1477.73696959 C-706.74330504 1479.90362542 -707.99330504 1482.07029209 -709.24328625 1484.23696959 C-716.74328625 1497.23696959 -724.24328625 1510.23696959 -731.74328625 1523.23696959 C-732.36211682 1524.30963072 -732.98094738 1525.38229186 -733.61853039 1526.48745787 C-734.86764143 1528.6525403 -736.11682754 1530.81757941 -737.36608899 1532.98257506 C-740.50530935 1538.42312665 -743.64319188 1543.86444175 -746.7784425 1549.30728209 C-753.39551517 1560.79145779 -760.03962602 1572.25893853 -766.72619641 1583.7027899 C-772.89247679 1594.26317241 -778.99824575 1604.85823725 -785.10217297 1615.45474303 C-788.23008773 1620.88356901 -791.36187073 1626.3101624 -794.49328625 1631.73696959 C-795.74330504 1633.90362542 -796.99330504 1636.07029209 -798.24328625 1638.23696959 C-800.74328625 1642.57030292 -803.24328625 1646.90363626 -805.74328625 1651.23696959 C-806.36211682 1652.30963072 -806.98094738 1653.38229186 -807.61853039 1654.48745787 C-808.86764143 1656.6525403 -810.11682754 1658.81757941 -811.36608899 1660.98257506 C-814.50530935 1666.42312665 -817.64319188 1671.86444175 -820.7784425 1677.30728209 C-827.39551517 1688.79145779 -834.03962602 1700.25893853 -840.72619641 1711.7027899 C-846.89247679 1722.26317241 -852.99824575 1732.85823725 -859.10217297 1743.45474303 C-862.23008773 1748.88356901 -865.36187073 1754.3101624 -868.49328625 1759.73696959 C-869.74330504 1761.90362542 -870.99330504 1764.07029209 -872.24328625 1766.23696959 C-883.49328625 1785.73696959 -883.49328625 1785.73696959 -894.74328625 1805.23696959 C-895.36211682 1806.30963072 -895.98094738 1807.38229186 -896.61853039 1808.48745787 C-897.86764143 1810.6525403 -899.11682754 1812.81757941 -900.36608899 1814.98257506 C-903.50530935 1820.42312665 -906.64319188 1825.86444175 -909.7784425 1831.30728209 C-916.39551517 1842.79145779 -923.03962602 1854.25893853 -929.72619641 1865.7027899 C-935.89247679 1876.26317241 -941.99824575 1886.85823725 -948.10217297 1897.45474303 C-951.23008773 1902.88356901 -954.36187073 1908.3101624 -957.49328625 1913.73696959 C-958.74330504 1915.90362542 -959.99330504 1918.07029209 -961.24328625 1920.23696959 C-963.74328625 1924.57030292 -966.24328625 1928.90363626 -968.74328625 1933.23696959 C-969.36211682 1934.30963072 -969.98094738 1935.38229186 -970.61853039 1936.48745787 C-971.86764143 1938.6525403 -973.11682754 1940.81757941 -974.36608899 1942.98257506 C-977.50530935 1948.42312665 -980.64319188 1953.86444175 -983.7784425 1959.30728209 C-990.39551517 1970.79145779 -997.03962602 1982.25893853 -1003.72619641 1993.7027899 C-1009.89247679 2004.26317241 -1015.99824575 2014.85823725 -1022.10217297 2025.45474303 C-1025.23008773 2030.88356901 -1028.36187073 2036.3101624 -1031.49328625 2041.73696959 C-1032.74330504 2043.90362542 -1033.99330504 2046.07029209 -1035.24328625 2048.23696959 C-1042.74328625 2061.23696959 -1050.24328625 2074.23696959 -1057.74328625 2087.23696959 C-1058.36211682 2088.30963072 -1058.98094738 2089.38229186 -1059.61853039 2090.48745787 C-1060.86764143 2092.6525403 -1062.11682754 2094.81757941 -1063.36608899 2096.98257506 C-1066.50530935 2102.42312665 -1069.64319188 2107.86444175 -1072.7784425 2113.30728209 C-1079.39551517 2124.79145779 -1086.03962602 2136.25893853 -1092.72619641 2147.7027899 C-1098.89247679 2158.26317241 -1104.99824575 2168.85823725 -1111.10217297 2179.45474303 C-1114.23008773 2184.88356901 -1117.36187073 2190.3101624 -1120.49328625 2195.73696959 C-1121.74330504 2197.90362542 -1122.99330504 2200.07029209 -1124.24328625 2202.23696959 C-1131.74328625 2215.23696959 -1139.24328625 2228.23696959 -1146.74328625 2241.23696959 C-1147.36211682 2242.30963072 -1147.98094738 2243.38229186 -1148.61853039 2244.48745787 C-1149.86764143 2246.6525403 -1151.11682754 2248.81757941 -1152.36608899 2250.98257506 C-1155.50530935 2256.42312665 -1158.64319188 2261.86444175 -1161.7784425 2267.30728209 C-1168.39551517 2278.79145779 -1175.03962602 2290.25893853 -1181.72619641 2301.7027899 C-1187.89247679 2312.26317241 -1193.99824575 2322.85823725 -1200.10217297 2333.45474303 C-1203.23008773 2338.88356901 -1206.36187073 2344.3101624 -1209.49328625 2349.73696959 C-1210.74330504 2351.90362542 -1211.99330504 2354.07029209 -1213.24328625 2356.23696959 C-1215.74328625 2360.57030292 -1218.24328625 2364.90363626 -1220.74328625 2369.23696959 C-1221.36211682 2370.30963072 -1221.98094738 2371.38229186 -1222.61853039 2372.48745787 C-1223.86764143 2374.6525403 -1225.11682754 2376.81757941 -1226.36608899 2378.98257506 C-1229.50530935 2384.42312665 -1232.64319188 2389.86444175 -1235.7784425 2395.30728209 C-1237.03748474 2397.49221961 -1238.29659896 2399.67711566 -1239.55578625 2401.86196959 C-1240.1691383 2402.92657408 -1240.78249035 2403.99117857 -1241.41442883 2405.08804381 C-1244.56126142 2410.54388088 -1247.72236917 2415.99080238 -1250.90734875 2421.42446959 C-1251.85758923 2423.04651305 -1251.85758923 2423.04651305 -1252.82702649 2424.70132506 C-1254.02472288 2426.74338715 -1255.22460347 2428.78417046 -1256.42712414 2430.82339537 C-1256.96844983 2431.74620299 -1257.50977551 2432.66901061 -1258.067505 2433.61978209 C-1258.53760998 2434.41787291 -1259.00771496 2435.21596373 -1259.49206555 2436.03823912 C-1260.75317468 2438.30532325 -1261.93200631 2440.58392508 -1263.08711255 2442.90564024 C-1263.44481637 2443.62378842 -1263.8025202 2444.34193659 -1264.17106354 2445.08184683 C-1264.44239704 2445.62803734 -1264.71373053 2446.17422785 -1264.99328625 2446.73696959 C-1215.23859409 2446.96267773 -1165.48389783 2447.18747168 -1115.72919762 2447.41139948 C-1113.92382349 2447.41952498 -1113.92382349 2447.41952498 -1112.08197715 2447.42781462 C-1110.87310184 2447.43325542 -1109.66422653 2447.43869623 -1108.41871864 2447.4443019 C-1107.2047831 2447.4497655 -1105.99084756 2447.45522909 -1104.7401261 2447.46085825 C-1102.27358143 2447.4719593 -1099.80703677 2447.48305991 -1097.34049211 2447.49416009 C-1079.92711408 2447.57252914 -1062.51373696 2447.65109689 -1045.10036041 2447.72979268 C-1012.99566199 2447.87486812 -980.89096049 2448.0192481 -948.786255 2448.16275084 C-947.47195561 2448.1686262 -946.15765621 2448.17450156 -944.80352956 2448.18055496 C-876.15508791 2448.48735156 -807.50661338 2448.78429227 -705.6610197 2449.19670048 C-704.28311568 2449.20225755 -702.90521165 2449.20781468 -701.52730763 2449.21337187 C-700.84578738 2449.21612044 -700.16426714 2449.21886901 -699.46209477 2449.22170087 C-685.12613309 2449.27952722 -670.79017346 2449.33785067 -656.45421419 2449.39626962 C-646.35376263 2449.43742716 -636.2533108 2449.47852134 -626.15285901 2449.5196234 C-622.81540495 2449.53320493 -619.47795091 2449.54679057 -616.14049689 2449.56038129 C-584.77387898 2449.68811115 -553.40725564 2449.81408527 -522.04061317 2449.93564617 C-501.0182344 2450.01714964 -479.99586683 2450.10116647 -458.97350758 2450.18756026 C-447.60192621 2450.23420786 -436.23034321 2450.27969766 -424.85874379 2450.32173789 C-381.44493059 2450.48273616 -338.03640332 2450.69245397 -294.6274339 2451.39330447 C-293.95489032 2451.40415285 -293.28234675 2451.41500123 -292.58942307 2451.42617835 C-291.92749557 2451.43685624 -291.26556807 2451.44753414 -290.58358216 2451.45853561 C-269.35789473 2451.80027348 -248.13537872 2451.89747733 -226.90722668 2451.8659445 C-223.94689954 2451.8618178 -220.98657445 2451.85939707 -218.02624524 2451.85726988 C-112.63332818 2451.77060426 -7.00018452 2449.38442469 262.00671375 2406.73696959 C262.81866199 2406.47174498 263.63061023 2406.20652037 264.46716297 2405.93325865 C284.61971669 2399.31188979 304.96032418 2390.91749991 321.00671375 2376.73696959 C321.67573719 2376.16204772 322.34476062 2375.58712584 323.0340575 2374.99478209 C328.35293284 2370.11446095 331.44190709 2365.06327213 332.38562 2357.83462584 C333.94208235 2317.21597928 301.11476836 2274.13223632 279.00671375 2242.73696959 C278.60275379 2242.16204772 278.19879383 2241.58712584 277.78259265 2240.99478209 C274.88898481 2236.8857406 271.95583199 2232.80630345 269.00671375 2228.73696959 C268.48206531 2228.01106627 267.95741687 2227.28516295 267.41687 2226.53726256 C260.22040426 2216.60057214 252.81914513 2206.90468135 245.02233875 2197.43228209 C242.27504572 2194.08737487 239.62950584 2190.68044179 237.00671375 2187.23696959 C233.26303003 2182.32642341 229.4156435 2177.51681841 225.50671375 2172.73696959 C220.71795415 2166.8787807 216.04863185 2160.94885271 211.4559325 2154.93618834 C203.82245827 2144.94355588 195.9400198 2135.15444158 187.994995 2125.40884459 C185.64949842 2122.53084505 183.32069828 2119.64041123 181.00671375 2116.73696959 C175.9523246 2110.40043981 170.82773517 2104.12088181 165.71228015 2097.83364928 C162.97554896 2094.46934245 160.24121825 2091.10308631 157.50671375 2087.73696959 C156.42339268 2086.40362629 155.34005933 2085.07029297 154.25671375 2083.73696959 C147.75671375 2075.73696959 141.25671375 2067.73696959 134.75671375 2059.73696959 C134.22054431 2059.07713072 133.68437488 2058.41729186 133.13195789 2057.73745787 C132.04756568 2056.402696 130.96341891 2055.06773469 129.87951648 2053.73257506 C127.18935056 2050.4194276 124.49515122 2047.10973997 121.79187 2043.80728209 C114.26312645 2034.59787271 106.92434319 2025.25388462 99.64392078 2015.84732115 C97.21537525 2012.71693827 94.76923076 2009.60056046 92.31921375 2006.48696959 C91.87762928 2005.92550231 91.4360448 2005.36403502 90.98107898 2004.78555357 C89.19792649 2002.51910142 87.41373885 2000.25346743 85.62878406 1997.98843443 C76.00637287 1985.776928 66.52174623 1973.48929351 57.31994617 1960.95694029 C53.57768586 1955.86149485 49.80847617 1950.78814647 46.00671375 1945.73696959 C36.30168434 1932.81636959 26.67628509 1919.87711771 17.61145008 1906.49575865 C14.5638553 1901.99831923 11.45718582 1897.56430628 8.25671375 1893.17446959 C0.40825608 1882.33042989 -6.73300085 1870.9792475 -13.99328625 1859.73696959 C-14.91464367 1858.31239439 -14.91464367 1858.31239439 -15.85461438 1856.8590399 C-31.06502123 1833.29565543 -45.53307745 1809.34385345 -58.99328625 1784.73696959 C-59.56643567 1783.69363463 -60.13958508 1782.65029967 -60.73010266 1781.5753485 C-104.14195846 1702.41255263 -137.7644632 1617.32895073 -149.74328625 1527.42446959 C-149.84451794 1526.6722412 -149.94574963 1525.9200128 -150.05004895 1525.14498961 C-153.14296386 1501.86898594 -154.3762316 1478.71167444 -154.30578625 1455.23696959 C-154.30396344 1453.96871336 -154.30214062 1452.70045714 -154.30026257 1451.39376891 C-154.25266054 1431.66544005 -153.65481929 1412.3024832 -150.99328625 1392.73696959 C-150.82167981 1391.43904479 -150.65007336 1390.14111998 -150.47326672 1388.80386412 C-143.55970096 1337.3075204 -128.65554983 1288.34499627 -107.99328625 1240.73696959 C-107.39846447 1239.35831725 -107.39846447 1239.35831725 -106.7916261 1237.95181334 C-92.13267891 1204.11625532 -75.17473562 1171.22100372 -55.99328625 1139.73696959 C-55.39902844 1138.75986022 -54.80477063 1137.78275084 -54.192505 1136.77603209 C-46.08384727 1123.49490426 -37.61100998 1110.55393146 -28.54650891 1097.9059149 C-27.1284317 1095.92568889 -25.72064035 1093.93873477 -24.317505 1091.94790709 C-14.76744899 1078.42694942 -4.77312239 1065.26294522 5.65319812 1052.40640318 C6.87366605 1050.90107135 8.0889482 1049.39153866 9.30358875 1047.88150084 C18.84750215 1036.09093629 28.87498124 1024.73633887 39.23107898 1013.65615904 C40.62729809 1012.14705985 42.01256521 1010.62782726 43.39367664 1009.10488951 C49.64357917 1002.21487918 56.05978303 995.52630576 62.65100086 988.96231139 C64.20760764 987.41112232 65.75871546 985.85457567 67.30944812 984.29751647 C72.14197991 979.4617712 77.01812732 974.72855454 82.21643054 970.28213561 C85.16926693 967.73358774 87.9823286 965.03792866 90.81921375 962.36196959 C95.78990329 957.71057781 100.86892567 953.28546909 106.18640125 949.02993834 C108.80329608 946.9023521 111.35122945 944.71707193 113.89270008 942.50112975 C121.62070815 935.77234889 129.66352429 929.53658097 137.8465575 923.37368834 C139.96360838 921.7696299 142.06551767 920.14780435 144.16296375 918.51821959 C168.56702578 899.58363668 194.46696305 882.52259214 221.00671375 866.73696959 C221.857495 866.22666197 222.70827625 865.71635436 223.58483875 865.19058287 C292.44108819 823.96290352 367.46331187 791.8805699 473.89849842 761.30081236 C475.91978876 760.7602177 477.94015758 760.21630612 479.96032703 759.6715399 C531.4789156 745.83704805 583.81844428 735.95868341 636.70019519 729.039765 C638.89244991 728.75196993 641.08392628 728.45886763 643.27526844 728.16421568 C734.16734275 716.02067988 828.90271996 713.74329205 970.00671375 733.73696959 C970.86877429 733.93258482 971.73083484 734.12820006 972.61901844 734.32974303 C988.21397009 737.93874031 1004.3064226 742.92832398 1017.34704578 752.52114928 C1018.48731404 753.35647378 1019.64888263 754.16324429 1020.82653797 754.9449774 C1035.75304768 765.18315541 1041.33428392 783.0449055 1044.90646541 799.99024045 C1049.34751964 824.44206438 1047.27453863 850.61059514 1046.93542709 875.34115063 C1046.79913912 885.5258693 1046.74008344 895.71074782 1046.68431154 905.89617547 C1046.60191747 920.86331086 1046.50472231 935.8302618 1046.37497747 950.79706484 C1046.0402579 989.5273291 1045.87350095 1028.25620092 1045.77199117 1066.98768012 C1045.76152262 1070.95691482 1045.75074962 1074.9261487 1045.7399736 1078.89538258 C1045.73674722 1080.08491237 1045.73674722 1080.08491237 1045.73345565 1081.29847306 C1045.7290902 1082.90772592 1045.72472347 1084.51697878 1045.72035547 1086.12623164 C1045.70932685 1090.19101459 1045.69832869 1094.25579762 1045.6873329 1098.32058067 C1045.6851346 1099.13236241 1045.68293631 1099.94414415 1045.6806714 1100.78052534 C1045.6694836 1104.91537344 1045.65836203 1109.05022169 1045.64736195 1113.18507029 C1045.5447673 1151.7177343 1045.40670021 1190.25025285 1045.2646501 1228.78278869 C1045.24429288 1234.30702899 1045.22406212 1239.83126976 1045.20386714 1245.35551066 C1045.20051381 1246.27278814 1045.19716049 1247.19006562 1045.19370555 1248.13513939 C1045.18691455 1249.99301232 1045.1801241 1251.85088526 1045.17333421 1253.70875821 C1045.15625913 1258.38041295 1045.13917117 1263.05206765 1045.12207857 1267.72372233 C1045.11867789 1268.65318575 1045.1152772 1269.58264918 1045.11177347 1270.54027816 C1045.08757214 1277.15285861 1045.06330086 1283.76543879 1045.03900847 1290.3780189 C1044.93963193 1317.43911854 1044.84213442 1344.50022456 1044.74580371 1371.56133521 C1044.74233968 1372.53429456 1044.73887564 1373.50725391 1044.73530664 1374.50969687 C1044.70011072 1384.39587513 1044.66494594 1394.2820535 1044.6298015 1404.16823194 C1044.55486027 1425.24891905 1044.4796962 1446.32960537 1044.40442646 1467.41029131 C1044.40084418 1468.41363658 1044.39726191 1469.41698185 1044.39357108 1470.45073151 C1044.22461341 1517.76898528 1044.05339252 1565.08723081 1043.88180369 1612.4054751 C1043.8629251 1617.61153805 1043.84404804 1622.81760101 1043.82517093 1628.02366398 C1043.82142966 1629.05545773 1043.81768838 1630.08725148 1043.81383373 1631.15031172 C1043.77218407 1642.63683925 1043.73054027 1654.12336681 1043.68890369 1665.60989439 C1043.68514995 1666.6454245 1043.68139622 1667.6809546 1043.67752874 1668.74786441 C1043.50222826 1717.1090207 1043.32804932 1765.470181 1043.15426716 1813.83134277 C1043.14294773 1816.98135261 1043.13162744 1820.13136244 1043.12030701 1823.28137227 C1042.95311385 1869.80553004 1042.78624066 1916.32968895 1042.61985642 1962.85384962 C1042.6090099 1965.8867255 1042.59816278 1968.91960137 1042.58731551 1971.95247724 C1042.52293035 1989.95465269 1042.45854946 2007.95682816 1042.39422971 2025.95900384 C1042.23127563 2071.56642069 1042.06740415 2117.17383398 1041.90157193 2162.78124046 C1041.83084337 2182.23375985 1041.76024114 2201.68627968 1041.69026935 2221.13880181 C1041.68706616 2222.02928581 1041.68386297 2222.91976981 1041.68056271 2223.83723817 C1041.64873755 2232.68609482 1041.61695306 2241.53495161 1041.58522225 2250.3838086 C1041.56973094 2254.70361636 1041.55422934 2259.02342409 1041.53872097 2263.3432318 C1041.53568224 2264.18970731 1041.53264351 2265.03618283 1041.5295127 2265.90830912 C1041.48480476 2278.35589597 1041.4394029 2290.80348016 1041.39359081 2303.25106299 C1041.32658307 2321.46679407 1041.26056411 2339.68252844 1041.19653308 2357.89827025 C1041.19282775 2358.95140414 1041.19282775 2358.95140414 1041.18904756 2360.02581346 C1041.04063718 2402.26296121 1040.93630611 2444.4995612 1041.00671375 2486.73696959 C1062.9532797 2487.51993071 1084.87386577 2487.90501965 1106.83339959 2487.96239071 C1111.09111242 2487.97454018 1115.34880476 2487.99196854 1119.60650182 2488.0086495 C1127.06254244 2488.03716428 1134.51858834 2488.06245625 1141.97464769 2488.08553655 C1153.13857329 2488.12011185 1164.30247649 2488.15988104 1175.46638119 2488.20059295 C1194.50649575 2488.26987897 1213.54662249 2488.33499887 1232.58675945 2488.39780295 C1251.86890455 2488.4614212 1271.1510416 2488.52698412 1290.43317211 2488.59488738 C1291.65409072 2488.59918565 1292.87500933 2488.60348393 1294.13292548 2488.60791246 C1299.10634767 2488.62542815 1304.0797698 2488.64295794 1309.05319188 2488.66050549 C1355.33738314 2488.82380804 1401.62158814 2488.98280269 1447.90580356 2489.13907111 C1459.03558201 2489.17664985 1470.16536044 2489.21423559 1481.29513872 2489.25186718 C1481.98730452 2489.2542074 1482.67947033 2489.25654763 1483.39261086 2489.25895878 C1515.54764317 2489.36769058 1547.70266814 2489.47851921 1579.85769161 2489.58983107 C1582.66833163 2489.59956033 1585.47897165 2489.60928726 1588.28961168 2489.61901426 C1600.29768632 2489.66057194 1612.30576091 2489.70214417 1624.31383545 2489.74373188 C1655.92258947 2489.85319995 1687.53134453 2489.96236775 1719.14010036 2490.07131159 C1719.85974224 2490.07379205 1720.57938413 2490.07627251 1721.32083334 2490.07882813 C1767.92575502 2490.23946138 1814.53068101 2490.39880217 1861.13561046 2490.55716097 C1861.87942861 2490.55968847 1862.62324676 2490.56221597 1863.38960485 2490.56482006 C1888.2977599 2490.64945703 1913.20591525 2490.73400872 1938.11407061 2490.81855512 C1960.87998198 2490.89583069 1983.64589321 2490.97314476 2006.41180408 2491.05056822 C2007.54047851 2491.05440667 2007.54047851 2491.05440667 2008.69195445 2491.05832265 C2079.87404517 2491.30041503 2151.05612197 2491.54649485 2222.23819631 2491.79335215 C2225.99851471 2491.80639268 2229.75883311 2491.81943238 2233.51915151 2491.83247211 C2234.2633246 2491.83505269 2235.00749769 2491.83763328 2235.77422148 2491.84029207 C2237.27717502 2491.8455039 2238.78012856 2491.85071572 2240.28308211 2491.85592754 C2242.53636224 2491.86374129 2244.78964237 2491.87155511 2247.0429225 2491.87936893 C2262.77027984 2491.93390726 2278.4976372 2491.98843805 2294.2249946 2492.04295626 C2296.46451873 2492.05071956 2298.70404285 2492.05848321 2300.94356697 2492.0662469 C2346.65911519 2492.22472395 2392.37466585 2492.38247973 2438.09021938 2492.53942072 C2438.81049045 2492.54189345 2439.53076152 2492.54436618 2440.27285899 2492.54691384 C2473.36545691 2492.66051974 2506.45805559 2492.77390573 2539.55065487 2492.88711571 C2543.10066856 2492.89926049 2546.65068224 2492.91140622 2550.20069592 2492.9235519 C2551.61829726 2492.9284019 2553.0358986 2492.9332519 2554.45349994 2492.93810191 C2557.28451881 2492.94778763 2560.11553768 2492.9574735 2562.94655654 2492.96715947 C2564.35993841 2492.97199515 2565.77332027 2492.97683082 2567.18670213 2492.98166648 C2567.88579645 2492.98405833 2568.58489076 2492.98645018 2569.30516975 2492.98891451 C2573.53390471 2493.00338224 2577.76263969 2493.0178476 2581.99137467 2493.03231144 C2613.41290944 2493.13978631 2644.83444306 2493.24758245 2676.25597322 2493.35639751 C2676.94261153 2493.35877525 2677.62924983 2493.36115298 2678.33669536 2493.36360277 C2685.93795149 2493.38992523 2693.5392076 2493.41625597 2701.14046369 2493.44258873 C2703.8900533 2493.45211386 2706.63964291 2493.46163874 2709.38923252 2493.47116339 C2710.06821378 2493.47351541 2710.74719504 2493.47586743 2711.44675148 2493.47829073 C2758.43652375 2493.64105878 2805.42630322 2493.80159558 2852.41609155 2493.95967133 C2857.4434335 2493.97659098 2862.47077542 2493.99351877 2867.49811733 2494.01045287 C2869.34830632 2494.0166837 2869.34830632 2494.0166837 2871.23587288 2494.02304041 C2889.21738115 2494.08364064 2907.19888371 2494.14575363 2925.18038356 2494.20879996 C2951.67842218 2494.30162067 2978.17646808 2494.39199302 3004.67452991 2494.47795165 C3006.23174338 2494.48300993 3006.23174338 2494.48300993 3007.82041571 2494.48817039 C3093.21591152 2494.76493094 3178.61084755 2494.8126377 3264.00671375 2494.73696959 C3263.04643854 2492.97415176 3262.08588493 2491.21148559 3261.1252135 2489.44888365 C3260.32289578 2487.97648222 3260.32289578 2487.97648222 3259.50436962 2486.47433531 C3256.61355862 2481.19060686 3253.62042292 2475.96573109 3250.63171375 2470.73696959 C3250.28833972 2470.1357025 3249.9449657 2469.53443541 3249.5911864 2468.91494811 C3243.83606094 2458.84413823 3237.95108522 2448.85649844 3232.01354969 2438.89199889 C3227.21719652 2430.82524517 3222.52303187 2422.70591807 3217.88171375 2414.54946959 C3211.23986324 2402.87805958 3204.50969605 2391.26117326 3197.72448719 2379.67251647 C3194.81310674 2374.6971841 3191.91034963 2369.71682431 3189.00671375 2364.73696959 C3185.52055226 2358.75916656 3182.03347149 2352.78190963 3178.54187 2346.80728209 C3172.5389435 2336.53164461 3166.56474824 2326.24063406 3160.63171375 2315.92446959 C3155.51385261 2307.0280007 3150.3202391 2298.18044149 3145.06921375 2289.36196959 C3139.27308459 2279.62647079 3133.60343915 2269.82807067 3128.00698841 2259.977265 C3123.09829024 2251.34146746 3118.09268565 2242.77010023 3113.00671375 2234.23696959 C3107.5377684 2225.05939149 3102.16522028 2215.83447176 3096.88171375 2206.54946959 C3090.23986324 2194.87805958 3083.50969605 2183.26117326 3076.72448719 2171.67251647 C3073.81310674 2166.6971841 3070.91034963 2161.71682431 3068.00671375 2156.73696959 C3064.52055226 2150.75916656 3061.03347149 2144.78190963 3057.54187 2138.80728209 C3051.5389435 2128.53164461 3045.56474824 2118.24063406 3039.63171375 2107.92446959 C3034.51385162 2099.02799898 3029.32013867 2090.18050245 3024.06921375 2081.36196959 C3017.88761765 2070.97658734 3011.84818156 2060.51935922 3005.87072742 2050.01577818 C2999.89807579 2039.52314629 2993.82475524 2029.09134279 2987.72448719 2018.67251647 C2984.81310674 2013.6971841 2981.91034963 2008.71682431 2979.00671375 2003.73696959 C2975.52055226 1997.75916656 2972.03347149 1991.78190963 2968.54187 1985.80728209 C2962.5389435 1975.53164461 2956.56474824 1965.24063406 2950.63171375 1954.92446959 C2945.51385162 1946.02799898 2940.32013867 1937.18050245 2935.06921375 1928.36196959 C2928.88761765 1917.97658734 2922.84818156 1907.51935922 2916.87072742 1897.01577818 C2910.89807579 1886.52314629 2904.82475524 1876.09134279 2898.72448719 1865.67251647 C2895.81310674 1860.6971841 2892.91034963 1855.71682431 2890.00671375 1850.73696959 C2886.52055226 1844.75916656 2883.03347149 1838.78190963 2879.54187 1832.80728209 C2873.5389435 1822.53164461 2867.56474824 1812.24063406 2861.63171375 1801.92446959 C2856.51385261 1793.0280007 2851.3202391 1784.18044149 2846.06921375 1775.36196959 C2840.27623454 1765.63176161 2834.60984579 1755.83860676 2829.01605213 1745.99337828 C2822.16875612 1733.94840629 2815.1225912 1722.02726108 2808.01623523 1710.13345397 C2806.00671375 1706.73696959 2806.00671375 1706.73696959 2804.84001017 1703.82224804 C2803.22220289 1700.2556603 2801.68650508 1697.60592843 2799.00671375 1694.73696959 C2793.72075462 1692.99141505 2788.54065717 1693.32821403 2783.05538929 1693.54325926 C2781.36300532 1693.56406951 2779.67054497 1693.57927011 2777.9780637 1693.5894537 C2774.22891917 1693.62353454 2770.4830001 1693.69598422 2766.73503983 1693.79598951 C2760.42927191 1693.96266399 2754.12399161 1694.04132614 2747.81648815 1694.1091553 C2740.65556178 1694.1904218 2733.49495693 1694.27904648 2726.33448601 1694.39420348 C2705.89207847 1694.72133835 2685.45281249 1694.84294017 2665.00799549 1694.89343321 C2663.36480972 1694.89766051 2661.72162399 1694.90190357 2660.0784383 1694.90616211 C2653.30659376 1694.92354756 2646.53474797 1694.94030747 2639.76289923 1694.95596973 C2620.67298705 1695.00077367 2601.58322311 1695.07857085 2582.49342463 1695.15704125 C2577.70527442 1695.17664316 2572.91712262 1695.19584767 2568.12897086 1695.21506923 C2560.30602326 1695.24650327 2552.48307634 1695.27810308 2544.6601299 1695.3098253 C2532.63188517 1695.35857441 2520.60363768 1695.40662537 2508.57538974 1695.45457709 C2475.13815845 1695.58794889 2441.70092974 1695.72192533 2408.26371181 1695.8586117 C2406.67702432 1695.86509675 2406.67702432 1695.86509675 2405.05828254 1695.8717128 C2400.77398793 1695.88922394 2396.48969333 1695.90673798 2392.20539873 1695.92425273 C2388.98259488 1695.9374279 2385.75979104 1695.9506021 2382.53698719 1695.96377623 C2381.47208942 1695.96813 2380.40719166 1695.97248377 2379.31002427 1695.97696947 C2344.52444064 1696.11915948 2309.73884188 1696.25708576 2274.95323131 1696.39251641 C2237.97115426 1696.53651293 2200.98909309 1696.68405163 2164.00704694 1696.83578223 C2159.95781661 1696.85238272 2155.90858623 1696.86896944 2151.85935581 1696.88554633 C2150.86268561 1696.88962836 2149.86601541 1696.89371038 2148.83914309 1696.89791611 C2132.813823 1696.96346964 2116.78849196 1697.02581105 2100.76315471 1697.08700959 C2084.73019396 1697.14832132 2068.69725117 1697.21327099 2052.66432036 1697.28197759 C2043.14189337 1697.32267908 2033.61946459 1697.36061824 2024.0970114 1697.39465781 C2017.74921607 1697.41761909 2011.40144214 1697.4441292 2005.05367369 1697.47359643 C2001.43228563 1697.49030517 1997.81090951 1697.50541394 1994.18949862 1697.51622193 C1990.30003617 1697.52786642 1986.41063279 1697.54705626 1982.52120388 1697.56706965 C1981.38403561 1697.56925567 1980.24686733 1697.5714417 1979.07523942 1697.57369396 C1978.04552341 1697.58024151 1977.01580739 1697.58678905 1975.95488787 1697.59353501 C1975.06488387 1697.59712256 1974.17487987 1697.60071011 1973.25790606 1697.60440638 C1970.83714023 1697.64909767 1970.83714023 1697.64909767 1968.00671375 1698.73696959 C1968.00671375 1655.50696959 1968.00671375 1612.27696959 1968.00671375 1567.73696959 C1977.1874068 1567.70160597 1986.36809986 1567.66624236 1995.82699573 1567.62980711 C2002.05609123 1567.60578109 2008.28518672 1567.58175078 2014.51428211 1567.55769408 C2015.32348134 1567.55456899 2016.13268057 1567.5514439 2016.966401 1567.54822411 C2070.56042299 1567.34122939 2124.15444043 1567.13312746 2177.74844348 1566.9212805 C2178.78352529 1566.91718935 2179.81860709 1566.91309819 2180.88505501 1566.90888306 C2203.38126709 1566.81996 2225.87747834 1566.7308304 2248.37368875 1566.64148811 C2259.40614875 1566.59767464 2270.43860894 1566.5539068 2281.47106922 1566.51016295 C2282.56891978 1566.50580918 2283.66677034 1566.50145541 2284.79788909 1566.49696971 C2320.36939522 1566.35592442 2355.94091225 1566.21789097 2391.5124362 1566.08142277 C2428.07297545 1565.94114433 2464.63350153 1565.79782062 2501.19401381 1565.65067628 C2506.3603312 1565.62988493 2511.52664873 1565.60912831 2516.69296634 1565.58839285 C2517.70975148 1565.58431083 2518.72653662 1565.5802288 2519.77413343 1565.57602307 C2536.12819375 1565.51045665 2552.48226478 1565.44809147 2568.8363421 1565.38692959 C2585.28579418 1565.32534248 2601.73523014 1565.26036813 2618.18465529 1565.19196159 C2627.95227201 1565.15144426 2637.71989072 1565.11349869 2647.48753157 1565.07928137 C2654.02134574 1565.05613608 2660.55514052 1565.02959046 2667.0889302 1565.00034275 C2670.80597164 1564.98379936 2674.52300287 1564.96867468 2678.24006532 1564.95771725 C2692.85558661 1564.91372068 2707.42420456 1564.80324015 2722.00671375 1563.73696959 C2720.58475793 1560.09637228 2718.98727524 1556.7872993 2717.02233875 1553.40493834 C2716.12515125 1551.85516295 2716.12515125 1551.85516295 2715.20983875 1550.27407897 C2714.5653075 1549.16870787 2713.92077625 1548.06333678 2713.25671375 1546.92446959 C2712.57935762 1545.75731016 2711.90227863 1544.58998984 2711.22546375 1543.42251647 C2709.1573526 1539.85786153 2707.08279109 1536.29698937 2705.00671375 1532.73696959 C2704.4014989 1531.69879088 2703.79628406 1530.66061217 2703.17272937 1529.5909735 C2700.87503559 1525.65105904 2698.57646357 1521.71166425 2696.27478015 1517.77407897 C2692.03002076 1510.50821039 2687.82639766 1503.21933411 2683.63171375 1495.92446959 C2678.5139281 1487.02795811 2673.32023836 1478.18044024 2668.06921375 1469.36196959 C2662.27308459 1459.62647079 2656.60343915 1449.82807067 2651.00698841 1439.977265 C2646.09829132 1431.34146937 2641.09278206 1422.77004123 2636.00671375 1414.23696959 C2630.22921578 1404.54386264 2624.58028714 1394.78762002 2619.00671375 1384.97671568 C2614.09810178 1376.34110585 2609.09258005 1367.76992305 2604.00671375 1359.23696959 C2598.5377684 1350.05939149 2593.16522028 1340.83447176 2587.88171375 1331.54946959 C2581.23986324 1319.87805958 2574.50969605 1308.26117326 2567.72448719 1296.67251647 C2564.81310674 1291.6971841 2561.91034963 1286.71682431 2559.00671375 1281.73696959 C2555.52055226 1275.75916656 2552.03347149 1269.78190963 2548.54187 1263.80728209 C2542.5389435 1253.53164461 2536.56474824 1243.24063406 2530.63171375 1232.92446959 C2525.51385162 1224.02799898 2520.32013867 1215.18050245 2515.06921375 1206.36196959 C2508.88761765 1195.97658734 2502.84818156 1185.51935922 2496.87072742 1175.01577818 C2490.89807579 1164.52314629 2484.82475524 1154.09134279 2478.72448719 1143.67251647 C2475.81310674 1138.6971841 2472.91034963 1133.71682431 2470.00671375 1128.73696959 C2466.52055226 1122.75916656 2463.03347149 1116.78190963 2459.54187 1110.80728209 C2453.5389435 1100.53164461 2447.56474824 1090.24063406 2441.63171375 1079.92446959 C2436.51385162 1071.02799898 2431.32013867 1062.18050245 2426.06921375 1053.36196959 C2419.88761765 1042.97658734 2413.84818156 1032.51935922 2407.87072742 1022.01577818 C2401.89807579 1011.52314629 2395.82475524 1001.09134279 2389.72448719 990.67251647 C2386.81310674 985.6971841 2383.91034963 980.71682431 2381.00671375 975.73696959 C2377.52055226 969.75916656 2374.03347149 963.78190963 2370.54187 957.80728209 C2364.53894302 947.53164378 2358.56486617 937.2405667 2352.63171375 926.92446959 C2345.47917169 914.49407772 2338.17261677 902.15949078 2330.838745 889.8356024 C2328.32179804 885.57852741 2325.84420732 881.29893232 2323.37194812 877.01577818 C2322.19864776 874.84784434 2322.19864776 874.84784434 2321.00671375 873.73696959 C2318.90467272 873.63857059 2316.79924984 873.61249848 2314.69490701 873.61277109 C2313.68780633 873.61085396 2313.68780633 873.61085396 2312.66036018 873.60889811 C2310.37785139 873.60580016 2308.09540992 873.60991959 2305.81290329 873.61392176 C2304.16599955 873.61318305 2302.51909597 873.61200545 2300.87219283 873.61042526 C2296.30415823 873.60733522 2291.73614564 873.61054865 2287.16811267 873.6147034 C2282.21455486 873.61811981 2277.26099942 873.61577021 2272.30744117 873.61412591 C2263.61170348 873.61204593 2254.91597261 873.61370653 2246.22023571 873.61776412 C2233.28984289 873.62378097 2220.35945441 873.62410162 2207.42906046 873.62322213 C2185.68167839 873.6219059 2163.93429932 873.62525117 2142.18691814 873.63123953 C2120.64334525 873.63715763 2099.09977361 873.64101375 2077.55619991 873.64209235 C2076.55341355 873.64214396 2076.55341355 873.64214396 2075.53036888 873.64219663 C2069.42462447 873.64250982 2063.31888005 873.64279751 2057.21313563 873.6430546 C2042.0334659 873.64369408 2026.8537962 873.64465345 2011.67412651 873.6458298 C2010.63713802 873.64590977 2010.63713802 873.64590977 2009.57920028 873.64599136 C1975.93239766 873.64861426 1942.28559586 873.65492238 1908.63879383 873.66153014 C1896.95943185 873.66382175 1885.28006988 873.6660971 1873.60070789 873.66830504 C1872.5142072 873.66851046 1872.5142072 873.66851046 1871.40575701 873.66872004 C1837.74696887 873.67506157 1804.08818059 873.67878889 1770.42939202 873.68183983 C1768.24482116 873.6820379 1766.06025031 873.68223709 1763.87567946 873.68243651 C1749.39867816 873.68375627 1734.92167685 873.68503092 1720.44467554 873.68627537 C1691.63788416 873.68875202 1662.83109282 873.6914937 1634.02430148 873.69441742 C1632.65237969 873.69455666 1631.28045789 873.69469571 1629.90853609 873.69483458 C1559.01761135 873.70201207 1488.12668743 873.7134163 1417.23576343 873.72586119 C1416.24782115 873.7260346 1415.25987887 873.726208 1414.24199894 873.72638666 C1394.83023719 873.72980143 1375.41847547 873.73340339 1356.00671375 873.73696959 C1356.00671375 830.50696959 1356.00671375 787.27696959 1356.00671375 742.73696959 C1649.37671375 742.73696959 1942.74671375 742.73696959 2245.00671375 742.73696959 C2242.36671375 738.11696959 2239.72671375 733.49696959 2237.00671375 728.73696959 C2233.94421375 723.28775084 2233.94421375 723.28775084 2232.49572742 720.70303404 C2226.53998871 710.08933933 2220.39578371 699.59961298 2214.16540515 689.14517272 C2209.31590684 680.99599783 2204.57112128 672.79170402 2199.88171375 664.54946959 C2193.24007541 652.87794009 2186.50969453 641.26117064 2179.72448719 629.67251647 C2176.81310674 624.6971841 2173.91034963 619.71682431 2171.00671375 614.73696959 C2167.52055226 608.75916656 2164.03347149 602.78190963 2160.54187 596.80728209 C2154.5389435 586.53164461 2148.56474824 576.24063406 2142.63171375 565.92446959 C2137.51385261 557.0280007 2132.3202391 548.18044149 2127.06921375 539.36196959 C2121.27308459 529.62647079 2115.60343915 519.82807067 2110.00698841 509.977265 C2105.09829024 501.34146746 2100.09268565 492.77010023 2095.00671375 484.23696959 C2089.5377684 475.05939149 2084.16522028 465.83447176 2078.88171375 456.54946959 C2072.23986324 444.87805958 2065.50969605 433.26117326 2058.72448719 421.67251647 C2055.81310674 416.6971841 2052.91034963 411.71682431 2050.00671375 406.73696959 C2046.52055226 400.75916656 2043.03347149 394.78190963 2039.54187 388.80728209 C2033.5389435 378.53164461 2027.56474824 368.24063406 2021.63171375 357.92446959 C2016.51385162 349.02799898 2011.32013867 340.18050245 2006.06921375 331.36196959 C1999.88761765 320.97658734 1993.84818156 310.51935922 1987.87072742 300.01577818 C1981.89807579 289.52314629 1975.82475524 279.09134279 1969.72448719 268.67251647 C1966.81310674 263.6971841 1963.91034963 258.71682431 1961.00671375 253.73696959 C1957.52055226 247.75916656 1954.03347149 241.78190963 1950.54187 235.80728209 C1944.53894316 225.53164402 1938.56483587 215.24058396 1932.63171375 204.92446959 C1926.92132666 194.99975004 1921.12600272 185.12861452 1915.25134265 175.30020201 C1914.65499012 174.29964781 1914.05863758 173.29909361 1913.44421375 172.26821959 C1912.79670433 171.23733291 1912.14919491 170.20644622 1911.48206399 169.14432055 C1909.42044827 165.68411663 1907.88563747 162.12760397 1906.34095778 158.4102427 C1900.96297763 145.90831405 1900.96297763 145.90831405 1891.00870709 137.25948283 C1882.91866822 135.15067393 1874.63114892 135.54204101 1866.35281707 135.91759869 C1862.61966476 136.05748962 1858.88659408 136.04356061 1855.15126541 136.04819556 C1848.6974278 136.07614153 1842.25085376 136.19659621 1835.79966274 136.3808999 C1826.34940453 136.64961837 1816.90174021 136.76589816 1807.44817977 136.84248732 C1793.15347097 136.95916832 1778.86130001 137.14915486 1764.56827146 137.39484317 C1744.62609199 137.73446768 1724.69582016 137.79644328 1704.75153339 137.66641104 C1704.02968353 137.66185713 1703.30783367 137.65730322 1702.56410958 137.65261131 C1696.0222976 137.61131575 1689.48050925 137.56710065 1682.93874979 137.51816723 C1668.06474946 137.40753433 1653.19068119 137.35654835 1638.31636335 137.30984748 C1633.71170849 137.29533914 1629.1070584 137.2796008 1624.50240877 137.26352727 C1623.7355623 137.26085069 1622.96871582 137.25817411 1622.17863157 137.25541642 C1620.62103158 137.2499745 1619.06343161 137.24452875 1617.50583165 137.2390792 C1615.14711271 137.23085505 1612.78839349 137.22271537 1610.42967415 137.2146061 C1598.84307973 137.17476698 1587.25649028 137.13363037 1575.66990268 137.09185469 C1574.3888857 137.0872371 1574.3888857 137.0872371 1573.08198959 137.08252622 C1569.59947938 137.06997018 1566.11696919 137.05740774 1562.63445904 137.0448371 C1527.8830476 136.91940257 1493.13162643 136.79685817 1458.38020008 136.67563045 C1453.63205408 136.65906665 1448.88390808 136.64249994 1444.1357621 136.62593019 C1443.19156734 136.62263539 1442.24737259 136.61934059 1441.27456587 136.61594595 C1420.02598033 136.54178144 1398.7773979 136.46674409 1377.52881593 136.39156453 C1372.62623711 136.37421942 1367.72365826 136.3568809 1362.82107942 136.33954196 C1361.84702887 136.336097 1360.87297833 136.33265205 1359.8694111 136.3291027 C1357.89836076 136.32213167 1355.92731042 136.3151607 1353.95626007 136.30818982 C1351.9809478 136.30120381 1350.00563552 136.2942176 1348.03032325 136.28723121 C1292.21730396 136.08983285 1236.40428137 135.89339343 1180.59125125 135.69908106 C1179.05181292 135.69372113 1179.05181292 135.69372113 1177.48127483 135.68825292 C1166.04678185 135.64844106 1154.61228883 135.60864092 1143.1777958 135.56884383 C1140.05059369 135.55795961 1136.92339158 135.54707536 1133.79618947 135.53619109 C1131.70963438 135.52892895 1129.6230793 135.52166706 1127.53652421 135.51440543 C1061.79024757 135.28559295 996.0439838 135.05337646 930.29772937 134.81826842 C913.75629806 134.75911739 897.21486671 134.69997948 880.67343509 134.64091456 C879.14359844 134.63545188 879.14359844 134.63545188 877.58285599 134.62987884 C845.89422893 134.51674212 814.20559827 134.40465671 782.51696384 134.29360354 C781.01357397 134.28833472 781.01357397 134.28833472 779.47981259 134.28295945 C757.42429106 134.20567315 735.36876867 134.12863622 713.31324548 134.05182534 C705.41135748 134.02430403 697.50946953 133.99676507 689.60758162 133.96921774 C687.64340528 133.9623705 685.67922893 133.95552422 683.71505259 133.94867892 C656.81685767 133.85492927 629.91866851 133.75969975 603.02048497 133.66273921 C596.48219309 133.63917841 589.94390082 133.61573053 583.40560828 133.59235397 C582.02695508 133.58742385 582.02695508 133.58742385 580.62045031 133.58239412 C576.92122847 133.56916702 573.22200662 133.55594199 569.52278473 133.54272971 C559.46393746 133.506797 549.40509127 133.47060511 539.3462477 133.43364897 C528.56669912 133.39406492 517.78714863 133.35504981 507.00759494 133.31688082 C506.12794684 133.31376469 505.24829873 133.31064857 504.34199462 133.30743801 C479.30328147 133.21906852 454.26460211 133.15289181 429.22577531 133.10744779 C415.99948567 133.08335529 402.77320205 133.0560188 389.54691995 133.02812699 C386.30573539 133.02130578 383.06455049 133.01471364 379.82336509 133.00830879 C337.11281725 132.92326226 294.41233419 132.61557708 251.70570005 132.03064628 C240.85200475 131.88241408 229.99826894 131.75632004 219.14407027 131.6513142 C218.44893639 131.64455171 217.75380251 131.63778921 217.03760397 131.6308218 C210.15769778 131.56412787 203.27777215 131.50016584 196.39780405 131.440199 C181.46973552 131.30904577 166.5464142 131.1050599 151.62112993 130.78530586 C142.19463888 130.58911668 132.76966083 130.47734687 123.3412293 130.43480449 C117.99350063 130.40773373 112.65399736 130.34178915 107.30887753 130.16726108 C79.00229695 128.29975875 79.00229695 128.29975875 61.22379325 147.69503567 Z " fill="#828AC4" transform="translate(1490.9932862520218,-0.7369695901870728)"/>
</svg>
